<svg width="172" height="31" viewBox="0 0 172 31" fill="none" xmlns="http://www.w3.org/2000/svg">
<path d="M31.0446 17.5916C32.2563 17.5916 33.2386 16.6187 33.2386 15.4185C33.2386 14.2183 32.2563 13.2454 31.0446 13.2454C29.8328 13.2454 28.8505 14.2183 28.8505 15.4185C28.8505 16.6187 29.8328 17.5916 31.0446 17.5916Z" fill="#252331"/>
<path d="M46.5189 0H15.5719C7.00785 0 0 6.93806 0 15.4184C0 23.8987 7.00785 30.8368 15.5719 30.8368H46.5189C55.083 30.8368 62.0908 23.8987 62.0908 15.4184C62.0908 6.93806 55.083 0 46.5189 0ZM31.0447 26.2449C25.0069 26.2449 20.1107 21.3976 20.1107 15.4198C20.1107 9.44196 25.0055 4.59467 31.0447 4.59467C37.0839 4.59467 41.9787 9.44196 41.9787 15.4198C41.9787 21.3976 37.0839 26.2449 31.0447 26.2449Z" fill="#252331"/>
<path d="M38.2036 16.7346L38.8052 16.8281L38.8847 16.3047L38.2846 16.2112L38.3264 15.9307L39.6649 16.1386L39.623 16.4192L39.1192 16.341L39.0396 16.8644L39.5435 16.9426L39.5002 17.2259L38.1603 17.0179L38.2036 16.7346Z" fill="#252331"/>
<path d="M39.1946 18.2447L39.1066 18.521L38.2455 18.2447C38.0892 18.1944 37.9859 18.1093 37.9356 17.9921C37.8854 17.8748 37.8882 17.7311 37.9426 17.5608C37.9929 17.4045 38.071 17.2914 38.1743 17.2244C38.279 17.1574 38.4088 17.149 38.5651 17.1993L39.4416 17.4812L39.3537 17.7562L38.5023 17.4826C38.4227 17.4561 38.3516 17.4561 38.2929 17.4826C38.2329 17.5077 38.1924 17.558 38.1687 17.632C38.1129 17.805 38.1687 17.9181 38.3362 17.9711L39.1974 18.2489L39.1946 18.2447Z" fill="#252331"/>
<path d="M37.7921 18.157L39.0063 18.7599L38.5625 19.6532L38.3504 19.5471L38.6714 18.9009L38.4118 18.7725L38.1159 19.3671L37.9023 19.261L38.1982 18.6664L37.8856 18.5115L37.5492 19.187L37.3343 19.0795L37.7935 18.157H37.7921Z" fill="#252331"/>
<path d="M36.7225 19.9391L37.4762 20.4834L36.8719 19.7353L37.038 19.5064L37.9354 19.8442L37.1859 19.3027L37.3408 19.0891L38.4393 19.8819L38.195 20.2196L37.2445 19.8372L37.9061 20.6174L37.666 20.9482L36.5676 20.1554L36.7239 19.9405L36.7225 19.9391Z" fill="#252331"/>
<path d="M35.8492 20.8394L36.1046 20.9817L36.4675 20.6356L36.3432 20.3676L36.561 20.1597L37.1486 21.4702L36.9099 21.6977L35.6245 21.0515L35.8478 20.838L35.8492 20.8394ZM36.822 21.3642H36.8234L36.5763 20.8547L36.3265 21.0934L36.822 21.3642Z" fill="#252331"/>
<path d="M34.9096 21.5291L35.9048 21.9533L35.3925 21.2039L35.6117 21.0559L36.3751 22.1725L36.1253 22.3414L35.186 21.9254L35.6773 22.6442L35.4567 22.7936L34.6933 21.677L34.9096 21.5304V21.5291Z" fill="#252331"/>
<path d="M33.8777 22.0773L34.309 23.3572L33.8079 23.5219C33.7214 23.5512 33.6363 23.5624 33.5525 23.5582C33.4688 23.554 33.392 23.533 33.3208 23.4968C33.2497 23.4605 33.1868 23.4074 33.131 23.3404C33.0752 23.2734 33.0305 23.1911 32.9984 23.0934C32.9663 22.9957 32.9482 22.9022 32.9482 22.8129C32.9482 22.7235 32.9621 22.6426 32.9928 22.5686C33.0222 22.4946 33.0668 22.4318 33.1254 22.3774C33.1841 22.323 33.2552 22.2825 33.3376 22.2546L33.8791 22.0759L33.8777 22.0773ZM33.4646 22.4556C33.346 22.4946 33.2734 22.5588 33.2441 22.6496C33.2148 22.7403 33.2245 22.8575 33.2748 23.0027C33.2985 23.0753 33.3264 23.1339 33.3571 23.1813C33.3878 23.2288 33.4227 23.2637 33.4632 23.2874C33.5037 23.3111 33.5483 23.3223 33.5986 23.3223C33.6488 23.3223 33.706 23.3111 33.7716 23.2902L33.9726 23.2246L33.6907 22.3844L33.4674 22.4584L33.4646 22.4556Z" fill="#252331"/>
<path d="M32.7182 22.4304L33.0099 23.748L32.7308 23.808L32.4391 22.4904L32.7182 22.4304Z" fill="#252331"/>
<path d="M31.3757 22.6271L31.3952 22.7596C31.4218 22.6996 31.4706 22.6508 31.539 22.6117C31.6074 22.5726 31.6897 22.5489 31.7832 22.5391C31.8768 22.5294 31.9647 22.5419 32.0442 22.574C32.1238 22.6061 32.195 22.6536 32.255 22.715C32.315 22.7764 32.3653 22.849 32.4029 22.9327C32.4406 23.0165 32.4643 23.1058 32.4741 23.1979C32.4853 23.2956 32.4797 23.3905 32.4602 23.4798C32.4406 23.5692 32.4071 23.6501 32.3569 23.7199C32.3066 23.7897 32.2438 23.8483 32.1643 23.893C32.0847 23.9376 31.9898 23.9669 31.8795 23.9767C31.7986 23.9851 31.7232 23.9809 31.6507 23.9641C31.5781 23.9488 31.5139 23.9223 31.4566 23.8874C31.4008 23.8525 31.3534 23.8078 31.3143 23.7548C31.2766 23.7017 31.2515 23.6431 31.2389 23.5761L31.525 23.5468C31.532 23.5775 31.546 23.6054 31.5669 23.632C31.5878 23.6585 31.6116 23.6794 31.6423 23.6976C31.673 23.7157 31.7051 23.7283 31.7428 23.7366C31.7805 23.745 31.8181 23.7478 31.8558 23.7436C31.9703 23.7325 32.0582 23.6808 32.1182 23.5901C32.1782 23.4994 32.1992 23.3738 32.1824 23.2133C32.1768 23.1588 32.1643 23.103 32.1433 23.0486C32.1238 22.9941 32.0959 22.9453 32.0596 22.9034C32.0233 22.8615 31.9814 22.828 31.9298 22.8057C31.8795 22.782 31.8209 22.7736 31.7553 22.7806C31.7093 22.7848 31.6674 22.7973 31.6283 22.8169C31.5906 22.8364 31.5571 22.8629 31.5306 22.8936C31.5041 22.9243 31.4832 22.9592 31.4706 22.9983C31.458 23.0374 31.4525 23.0779 31.4566 23.1197L31.7567 23.089L31.7805 23.3137L31.2138 23.3696L31.1384 22.648L31.3729 22.6243L31.3757 22.6271Z" fill="#252331"/>
<path d="M31.0729 22.626L31.0575 23.9743L30.7714 23.9701L30.7868 22.6218L31.0715 22.626H31.0729Z" fill="#252331"/>
<path d="M30.3501 22.5923L30.2259 23.6977L30.6348 23.7452L30.6083 23.9797L29.5057 23.8513L29.5322 23.6168L29.9425 23.6642L30.0668 22.5588L30.3515 22.5909L30.3501 22.5923Z" fill="#252331"/>
<path d="M29.0544 22.358L29.0767 22.6484L29.5666 22.7628L29.7229 22.5144L30.0174 22.5828L29.24 23.7845L28.9176 23.7091L28.7515 22.2869L29.0544 22.358ZM29.1507 23.4537H29.1521L29.4424 22.9722L29.1046 22.8926L29.1507 23.4537Z" fill="#252331"/>
<path d="M28.7445 22.2701L28.2434 23.5207L27.9782 23.4146L28.3886 22.393L27.7605 22.1403L27.8512 21.9128L28.7445 22.2715V22.2701Z" fill="#252331"/>
<path d="M26.326 20.9147L26.2255 21.1868L26.6261 21.4925L26.8731 21.3306L27.1132 21.5134L25.9045 22.2853L25.6407 22.0843L26.0803 20.7249L26.3274 20.9133L26.326 20.9147ZM25.9575 21.9489H25.9589L26.4251 21.6321L26.1487 21.4213L25.9575 21.9489Z" fill="#252331"/>
<path d="M25.4746 20.0748L25.381 20.1711C25.4452 20.1558 25.5136 20.1641 25.5876 20.1948C25.6602 20.2256 25.73 20.2758 25.7956 20.3442C25.8612 20.4126 25.9044 20.4879 25.9282 20.5703C25.9519 20.6526 25.9575 20.7364 25.9463 20.8215C25.9351 20.9067 25.9072 20.989 25.864 21.07C25.8193 21.1509 25.7649 21.2235 25.6965 21.2877C25.6253 21.3561 25.5471 21.4091 25.4634 21.4482C25.3796 21.4873 25.2959 21.5082 25.2094 21.5124C25.1228 21.5166 25.0377 21.5012 24.954 21.4663C24.8688 21.4314 24.7893 21.3742 24.7125 21.2933C24.6567 21.2346 24.6134 21.1718 24.5813 21.1049C24.5492 21.0379 24.5297 20.9723 24.5227 20.9053C24.5157 20.8397 24.5227 20.7755 24.5408 20.7127C24.559 20.6512 24.5911 20.5954 24.6371 20.5452L24.8353 20.7531C24.8158 20.7783 24.8018 20.8062 24.7934 20.8383C24.7865 20.8704 24.7837 20.9025 24.7879 20.936C24.7921 20.9695 24.8018 21.0044 24.8186 21.0379C24.8353 21.0727 24.8563 21.1035 24.8828 21.1314C24.9623 21.2151 25.0558 21.2528 25.1647 21.2444C25.2736 21.236 25.3866 21.1774 25.5039 21.0672C25.5443 21.0295 25.5806 20.9862 25.6113 20.9374C25.642 20.8885 25.663 20.8369 25.6755 20.7838C25.6881 20.7308 25.6867 20.6764 25.6755 20.6219C25.663 20.5675 25.6351 20.5173 25.589 20.4698C25.5569 20.4363 25.5206 20.4098 25.4815 20.3916C25.4425 20.3735 25.4006 20.3637 25.3601 20.3609C25.3182 20.3581 25.2778 20.3637 25.2401 20.3777C25.201 20.3902 25.1661 20.4112 25.1354 20.4405L25.3434 20.6596L25.1787 20.8145L24.7865 20.4014L25.314 19.9045L25.4759 20.0762L25.4746 20.0748Z" fill="#252331"/>
<path d="M25.2902 19.8613L24.1694 20.6122L23.6069 19.7831L23.8023 19.6519L24.2099 20.2507L24.4499 20.0902L24.0745 19.5375L24.2713 19.4049L24.6467 19.9576L24.9356 19.7636L24.51 19.1369L24.7095 19.0029L25.2916 19.8585L25.2902 19.8613Z" fill="#252331"/>
<path d="M24.3398 18.2324L23.7675 19.1424L24.5896 18.7586L24.7027 18.9972L23.4786 19.5695L23.3488 19.2973L23.9043 18.4403L23.1171 18.8074L23.0027 18.566L24.2267 17.9951L24.3398 18.2324Z" fill="#252331"/>
<path d="M23.4286 16.9217C23.5067 16.9147 23.5807 16.9189 23.6505 16.9343C23.7203 16.9496 23.7831 16.9734 23.8403 17.0097C23.8975 17.0459 23.9464 17.092 23.9882 17.1478C24.0301 17.2037 24.0622 17.2707 24.0831 17.3474C24.1083 17.4326 24.1166 17.5163 24.1097 17.5986C24.1027 17.681 24.0776 17.7578 24.0357 17.8275C23.9938 17.8973 23.9352 17.9601 23.8598 18.0146C23.7845 18.069 23.6909 18.1123 23.5779 18.143C23.4676 18.1737 23.3658 18.1876 23.2694 18.1848C23.1731 18.1821 23.0866 18.1625 23.0112 18.1262C22.9359 18.0899 22.8703 18.0397 22.8158 17.9741C22.7614 17.9085 22.7209 17.8275 22.6944 17.7354C22.6707 17.6545 22.6623 17.5763 22.6665 17.5037C22.6721 17.4312 22.6888 17.3642 22.7167 17.3042C22.7461 17.2441 22.7851 17.1925 22.834 17.1478C22.8828 17.1032 22.9401 17.0683 23.0029 17.0432L23.0824 17.3167C23.014 17.3558 22.9652 17.4074 22.9401 17.4716C22.9135 17.5358 22.9107 17.6 22.9289 17.667C22.961 17.7815 23.0266 17.8541 23.1243 17.8848C23.222 17.9155 23.3406 17.9113 23.4844 17.8708C23.6295 17.8303 23.7342 17.7717 23.7998 17.6963C23.8654 17.621 23.8822 17.5289 23.8515 17.4228C23.8277 17.3418 23.7873 17.2818 23.7286 17.2455C23.6714 17.2078 23.5974 17.1925 23.5109 17.1967L23.4313 16.9231L23.4286 16.9217Z" fill="#252331"/>
<path d="M23.8459 16.4808L23.3379 16.545L22.5646 17.1172L22.5214 16.7878L23.0308 16.4347L22.4502 16.2407L22.4083 15.9155L23.3072 16.2617L23.811 16.1989L23.8473 16.4808H23.8459Z" fill="#252331"/>
<path d="M23.8921 14.0815L23.292 13.9866L23.211 14.51L23.8112 14.6049L23.7679 14.8854L22.4294 14.6747L22.4727 14.3941L22.9766 14.4737L23.0575 13.9503L22.5537 13.8707L22.5969 13.5874L23.9354 13.7982L23.8921 14.0815Z" fill="#252331"/>
<path d="M22.9062 12.5615L22.9955 12.2852L23.8552 12.5657C24.0116 12.6173 24.1148 12.7011 24.1651 12.8197C24.2153 12.9383 24.2125 13.0821 24.1567 13.251C24.1065 13.4073 24.0283 13.519 23.9236 13.586C23.8189 13.6529 23.6891 13.6613 23.5328 13.6111L22.6577 13.3264L22.747 13.0528L23.597 13.3291C23.678 13.3557 23.7478 13.3557 23.8078 13.3305C23.8678 13.3054 23.9097 13.2566 23.9334 13.1826C23.9892 13.0095 23.9334 12.8965 23.7673 12.842L22.9075 12.5615H22.9062Z" fill="#252331"/>
<path d="M24.3089 12.655L23.0975 12.0479L23.5455 11.156L23.7576 11.2621L23.4338 11.9069L23.6934 12.0367L23.9921 11.4435L24.2057 11.551L23.907 12.1442L24.2196 12.3005L24.5574 11.6264L24.7723 11.7338L24.3103 12.655H24.3089Z" fill="#252331"/>
<path d="M25.3855 10.8769L24.6346 10.3312L25.2362 11.082L25.0701 11.3095L24.174 10.969L24.9221 11.5133L24.7672 11.7255L23.6716 10.9285L23.9186 10.5922L24.8677 10.9788L24.2089 10.1958L24.4504 9.86499L25.546 10.6619L25.3883 10.8769H25.3855Z" fill="#252331"/>
<path d="M26.2629 9.97956L26.0075 9.8372L25.6432 10.1819L25.766 10.4499L25.5469 10.6565L24.9649 9.34451L25.2036 9.11841L26.4862 9.76881L26.2615 9.98096L26.2629 9.97956ZM25.2929 9.45198H25.2915L25.5371 9.96281L25.7884 9.72554L25.2929 9.45338V9.45198Z" fill="#252331"/>
<path d="M27.2042 9.29398L26.2104 8.8655L26.7198 9.61779L26.5007 9.76434L25.7415 8.64498L25.9913 8.47749L26.9292 8.89621L26.4407 8.17602L26.6612 8.02808L27.4205 9.14743L27.2028 9.29398H27.2042Z" fill="#252331"/>
<path d="M28.2337 8.75126L27.8066 7.47L28.3076 7.3067C28.3942 7.27879 28.4793 7.26622 28.5644 7.27181C28.6496 7.27739 28.725 7.29833 28.7961 7.33461C28.8659 7.3709 28.9301 7.42394 28.986 7.49093C29.0418 7.55932 29.085 7.64167 29.1185 7.73937C29.1506 7.83707 29.1674 7.93058 29.1674 8.01991C29.1674 8.10923 29.152 8.19018 29.1227 8.26415C29.0934 8.33813 29.0474 8.40093 28.9901 8.45537C28.9315 8.5098 28.8603 8.55027 28.778 8.57679L28.2365 8.75405L28.2337 8.75126ZM28.6482 8.37442C28.7668 8.33534 28.8408 8.27113 28.8687 8.18181C28.898 8.09109 28.8883 7.97385 28.8394 7.82869C28.8157 7.75612 28.7878 7.6975 28.7585 7.65004C28.7277 7.60259 28.6929 7.5677 28.6524 7.54397C28.6119 7.52024 28.5672 7.50908 28.517 7.50908C28.4668 7.50908 28.4081 7.52024 28.3439 7.54118L28.1429 7.60678L28.4235 8.44839L28.6468 8.37442H28.6482Z" fill="#252331"/>
<path d="M29.3935 8.40076L29.106 7.08181L29.3851 7.02319L29.6726 8.34214L29.3935 8.40076Z" fill="#252331"/>
<path d="M30.7421 8.20967L30.7225 8.07708C30.696 8.13709 30.6471 8.18594 30.5774 8.22502C30.509 8.2641 30.4266 8.28783 30.3331 8.2962C30.2396 8.30458 30.1517 8.29341 30.0721 8.26131C29.9926 8.22921 29.9228 8.18176 29.8614 8.12035C29.8013 8.05893 29.7525 7.98636 29.7148 7.90122C29.6771 7.81748 29.6534 7.72815 29.645 7.63604C29.6353 7.53834 29.6394 7.44343 29.6604 7.3541C29.6799 7.26478 29.7148 7.18522 29.7651 7.11404C29.8139 7.04426 29.8781 6.98703 29.9577 6.94237C30.0372 6.89771 30.1321 6.86979 30.2424 6.85863C30.3233 6.85025 30.3987 6.85583 30.4713 6.87119C30.5439 6.88654 30.6081 6.91306 30.6653 6.94795C30.7211 6.98284 30.7686 7.02751 30.8063 7.08054C30.8439 7.13358 30.8691 7.1936 30.8816 7.26059L30.5955 7.2885C30.5885 7.2578 30.5746 7.22988 30.5536 7.20337C30.5327 7.17685 30.509 7.15591 30.4797 7.13777C30.4504 7.11962 30.4169 7.10706 30.3792 7.09869C30.3415 7.09031 30.3038 7.08752 30.2661 7.09031C30.1517 7.10148 30.0637 7.15172 30.0037 7.24245C29.9437 7.33317 29.9214 7.45878 29.9367 7.61929C29.9423 7.67512 29.9549 7.72955 29.9744 7.78398C29.994 7.83841 30.0219 7.88726 30.0568 7.92913C30.0917 7.97101 30.1349 8.0045 30.1852 8.02823C30.2354 8.05196 30.294 8.06033 30.3596 8.05475C30.4057 8.05056 30.449 8.038 30.4866 8.01846C30.5257 7.99892 30.5578 7.9724 30.5857 7.9417C30.6137 7.91099 30.6332 7.8761 30.6458 7.83702C30.6583 7.79794 30.6639 7.75746 30.6597 7.71559L30.3596 7.7449L30.3373 7.52019L30.904 7.46576L30.9765 8.18734L30.7421 8.20967Z" fill="#252331"/>
<path d="M31.0406 8.21105L31.0602 6.86279L31.3463 6.86838L31.3268 8.21663L31.042 8.21105H31.0406Z" fill="#252331"/>
<path d="M31.7623 8.24591L31.8893 7.14051L31.4803 7.09166L31.5069 6.85718L32.6095 6.98837L32.583 7.22285L32.1726 7.174L32.0456 8.2794L31.7623 8.24591Z" fill="#252331"/>
<path d="M33.0619 8.48769L33.0409 8.19739L32.551 8.08154L32.3933 8.32998L32.0988 8.26019L32.8804 7.06128L33.2028 7.13804L33.3633 8.56027L33.0605 8.48909L33.0619 8.48769ZM32.9711 7.39206H32.9697L32.6766 7.87219L33.0144 7.95174L32.9711 7.39067V7.39206Z" fill="#252331"/>
<path d="M33.3784 8.57808L33.8851 7.33032L34.1502 7.43779L33.7357 8.45805L34.3624 8.71347L34.2703 8.94097L33.3784 8.57808Z" fill="#252331"/>
<path d="M35.786 9.94041L35.8879 9.66825L35.4887 9.36119L35.2417 9.5217L35.003 9.33746L36.2145 8.56982L36.4769 8.7722L36.0316 10.1302L35.786 9.94041ZM36.1572 8.90759L35.6897 9.22302L35.9646 9.43516L36.1572 8.90759Z" fill="#252331"/>
<path d="M36.6346 10.7847L36.7282 10.6884C36.664 10.7038 36.5956 10.6954 36.523 10.6633C36.4504 10.6326 36.3806 10.5823 36.3164 10.5139C36.2508 10.4456 36.2076 10.3688 36.1838 10.2864C36.1615 10.2041 36.1559 10.1204 36.1671 10.0352C36.1782 9.95008 36.2062 9.86773 36.2508 9.78678C36.2955 9.70583 36.3513 9.63465 36.4197 9.57045C36.4923 9.50345 36.5704 9.45042 36.6542 9.41134C36.7379 9.37226 36.8217 9.35132 36.9082 9.34853C36.9947 9.34434 37.0799 9.36109 37.1636 9.39598C37.2488 9.43088 37.3283 9.4895 37.4051 9.57045C37.4609 9.62907 37.5042 9.69187 37.5349 9.75887C37.5656 9.82586 37.5851 9.89286 37.5921 9.95845C37.5991 10.0241 37.5921 10.0883 37.574 10.1497C37.5544 10.2111 37.5223 10.2669 37.4763 10.3172L37.2795 10.1078C37.299 10.0841 37.313 10.0562 37.3213 10.0241C37.3297 9.99195 37.3311 9.95985 37.3283 9.92496C37.3241 9.89146 37.3144 9.85657 37.2976 9.82168C37.2809 9.78678 37.2599 9.75608 37.2348 9.72816C37.1552 9.64442 37.0617 9.60674 36.9529 9.61371C36.844 9.62069 36.7296 9.67931 36.6123 9.78957C36.5718 9.82726 36.5355 9.87053 36.5048 9.91938C36.4741 9.96822 36.4518 10.0199 36.4406 10.0729C36.4295 10.1259 36.4281 10.1804 36.4406 10.2348C36.4532 10.2892 36.4811 10.3395 36.5258 10.3883C36.5579 10.4218 36.5942 10.4483 36.6332 10.4665C36.6723 10.4846 36.7128 10.4958 36.7547 10.4972C36.7965 10.5 36.837 10.4944 36.8761 10.4818C36.9152 10.4693 36.9501 10.4483 36.9808 10.419L36.7728 10.1999L36.9375 10.0464L37.3283 10.4609L36.7979 10.955L36.636 10.7833L36.6346 10.7847Z" fill="#252331"/>
<path d="M36.8174 10.9998L37.941 10.2517L38.5007 11.0822L38.3053 11.2134L37.9005 10.6118L37.6604 10.7709L38.0331 11.325L37.8349 11.4562L37.4623 10.9021L37.1733 11.0947L37.5962 11.7228L37.3967 11.8554L36.8188 10.997L36.8174 10.9998Z" fill="#252331"/>
<path d="M37.7624 12.6329L38.3389 11.7243L37.5154 12.1053L37.4023 11.8652L38.6278 11.2986L38.7562 11.5707L38.1979 12.4249L38.9865 12.0606L39.0995 12.3021L37.8727 12.8688L37.761 12.6315L37.7624 12.6329Z" fill="#252331"/>
<path d="M38.6679 13.9445C38.5883 13.9501 38.5157 13.9459 38.446 13.932C38.3762 13.9166 38.3134 13.8915 38.2575 13.8552C38.2003 13.8189 38.1515 13.7729 38.1096 13.717C38.0677 13.6598 38.037 13.5942 38.0147 13.5175C37.991 13.4323 37.9826 13.3486 37.9896 13.2662C37.9979 13.1839 38.0217 13.1085 38.0649 13.0387C38.1068 12.9689 38.1668 12.9075 38.2422 12.8531C38.3176 12.7987 38.4111 12.7568 38.5241 12.7247C38.6344 12.694 38.7363 12.6814 38.834 12.6842C38.9303 12.6884 39.0168 12.7079 39.0922 12.7428C39.1675 12.7791 39.2331 12.8294 39.2876 12.8964C39.342 12.9634 39.3825 13.0429 39.409 13.1364C39.4327 13.2174 39.4411 13.2955 39.4355 13.3681C39.4299 13.4407 39.4132 13.5077 39.3839 13.5677C39.3546 13.6277 39.3155 13.6794 39.2652 13.7226C39.2164 13.7673 39.1592 13.8008 39.0964 13.8259L39.0182 13.5523C39.088 13.5133 39.1354 13.4616 39.162 13.3974C39.1885 13.3332 39.1927 13.269 39.1731 13.2034C39.141 13.089 39.0754 13.0164 38.9791 12.9857C38.8828 12.955 38.7628 12.9592 38.6204 12.9983C38.4753 13.0387 38.3692 13.096 38.305 13.1713C38.2394 13.2467 38.2226 13.3374 38.252 13.4435C38.2757 13.5244 38.3148 13.5844 38.3734 13.6207C38.4306 13.6584 38.5046 13.6738 38.5911 13.6696L38.6693 13.9431L38.6679 13.9445Z" fill="#252331"/>
<path d="M38.2496 14.3843L38.7577 14.3229L39.5337 13.7549L39.5755 14.0843L39.0647 14.4346L39.6439 14.6314L39.6858 14.9566L38.7884 14.6077L38.2845 14.6691L38.2482 14.3871L38.2496 14.3843Z" fill="#252331"/>
<path d="M80.2109 25.9309V16.2C80.2109 15.0095 80.0029 14.1958 79.5884 13.759C79.1739 13.3235 78.4872 13.1044 77.5311 13.1044C77.0203 13.1044 76.5625 13.2049 76.1591 13.4072C75.7544 13.6096 75.4138 13.886 75.1389 14.2363C74.8625 14.5866 74.6546 14.9914 74.5164 15.4492C74.3782 15.9069 74.3084 16.401 74.3084 16.9328V25.9295H70.1604V4.49146H74.3084V12.2767C74.4564 11.9362 74.6853 11.6124 74.9937 11.3039C75.3022 10.9955 75.6581 10.7345 76.0628 10.5223C76.4662 10.3102 76.9128 10.1399 77.4027 10.0115C77.8912 9.88447 78.4021 9.82027 78.9338 9.82027C80.55 9.82027 81.8634 10.2627 82.8739 11.1448C83.8844 12.0283 84.3896 13.2565 84.3896 14.8295V25.9323H80.2095L80.2109 25.9309Z" fill="#252331"/>
<path d="M96.4177 25.9309V23.7299C95.3541 25.4745 93.7267 26.3454 91.5369 26.3454C90.7497 26.3454 90.0323 26.2073 89.3833 25.9309C88.7343 25.6546 88.176 25.261 87.7085 24.7502C87.2409 24.2393 86.8738 23.6336 86.6072 22.9315C86.3407 22.2295 86.2081 21.4423 86.2081 20.57V10.2334H90.3561V19.9322C90.3561 21.889 91.2382 22.8673 93.0038 22.8673C94.0673 22.8673 94.8698 22.5324 95.4128 21.8624C95.9543 21.1925 96.2265 20.3369 96.2265 19.2943V10.2334H100.342V25.9309H96.4177Z" fill="#252331"/>
<path d="M105.958 19.1675C106.022 20.3594 106.367 21.3057 106.995 22.0063C107.621 22.7084 108.446 23.0587 109.468 23.0587C110.149 23.0587 110.749 22.9052 111.271 22.5953C111.792 22.2869 112.127 21.857 112.276 21.3029H116.551C116.061 22.9191 115.211 24.1641 113.998 25.0364C112.785 25.9087 111.34 26.3442 109.659 26.3442C104.427 26.3442 101.811 23.4942 101.811 17.7941C101.811 16.5812 101.981 15.487 102.322 14.5072C102.662 13.5288 103.156 12.6886 103.805 11.9866C104.455 11.2845 105.246 10.7472 106.182 10.3759C107.118 10.0033 108.192 9.81763 109.405 9.81763C111.829 9.81763 113.665 10.5936 114.908 12.1471C116.153 13.7005 116.774 16.0397 116.774 19.1661H105.959L105.958 19.1675ZM112.498 16.5519C112.477 15.9783 112.375 15.473 112.195 15.0362C112.014 14.6007 111.775 14.2392 111.478 13.9517C111.179 13.6642 110.84 13.452 110.457 13.3139C110.075 13.1757 109.68 13.1059 109.277 13.1059C108.448 13.1059 107.729 13.4088 107.123 14.0145C106.517 14.6203 106.171 15.4661 106.086 16.5505H112.499L112.498 16.5519Z" fill="#252331"/>
<path d="M136.618 25.9309V16.4233C136.618 15.4659 136.395 14.6899 135.948 14.0939C135.502 13.4993 134.906 13.2006 134.162 13.2006C133.418 13.2006 132.763 13.5203 132.264 14.1581C131.764 14.7959 131.514 15.5943 131.514 16.5503V25.9309H127.366V16.4875C127.366 15.8497 127.323 15.3291 127.239 14.9243C127.154 14.521 127.01 14.2014 126.808 13.9669C126.606 13.7324 126.346 13.5677 126.026 13.4728C125.707 13.3765 125.324 13.3291 124.878 13.3291C123.197 13.3291 122.357 14.3493 122.357 16.3912V25.9309H118.209V10.2334H122.102V12.5307C122.633 11.4881 123.271 10.7763 124.017 10.3925C124.76 10.0101 125.654 9.81885 126.696 9.81885C127.228 9.81885 127.701 9.86212 128.116 9.94586C128.53 10.031 128.903 10.1748 129.232 10.3771C129.562 10.5795 129.876 10.8391 130.173 11.1587C130.47 11.4783 130.768 11.8608 131.066 12.3074C131.492 11.4351 132.056 10.8028 132.758 10.4092C133.46 10.0156 134.31 9.81885 135.311 9.81885C136.098 9.81885 136.821 9.95144 137.48 10.218C138.138 10.4846 138.702 10.8559 139.171 11.3346C139.639 11.8133 140.006 12.3716 140.272 13.0094C140.538 13.6473 140.672 14.3284 140.672 15.0514V25.9309H136.62H136.618Z" fill="#252331"/>
<path d="M152.092 25.9311C151.965 25.5277 151.88 25.0588 151.837 24.527C151.347 25.0797 150.699 25.5221 149.891 25.8515C149.083 26.1809 148.146 26.3456 147.083 26.3456C145.274 26.3456 143.951 25.9464 143.111 25.1495C142.271 24.3525 141.85 23.3155 141.85 22.0384C141.85 20.9107 142.03 20.0119 142.393 19.3419C142.755 18.672 143.254 18.1458 143.892 17.762C144.53 17.3796 145.291 17.0976 146.173 16.9162C147.055 16.7361 148.018 16.5701 149.061 16.4221C150.102 16.2742 150.804 16.0774 151.167 15.8317C151.528 15.5875 151.71 15.1883 151.71 14.6356C151.71 14.1248 151.471 13.7256 150.992 13.4395C150.514 13.152 149.87 13.0082 149.062 13.0082C148.105 13.0082 147.419 13.2204 147.005 13.6461C146.59 14.0717 146.329 14.6356 146.223 15.3376H142.363C142.384 14.5295 142.516 13.7856 142.762 13.1045C143.006 12.4234 143.4 11.8386 143.943 11.3501C144.485 10.8616 145.192 10.4834 146.064 10.2168C146.936 9.95161 148 9.81763 149.255 9.81763C150.509 9.81763 151.535 9.9558 152.398 10.2322C153.259 10.5085 153.95 10.9077 154.472 11.4283C154.992 11.9503 155.371 12.5979 155.605 13.3739C155.84 14.1499 155.955 15.0278 155.955 16.0062V25.9283H152.095L152.092 25.9311ZM151.805 18.2421C151.592 18.4543 151.283 18.6245 150.879 18.7529C150.474 18.88 149.89 19.0195 149.125 19.1675C147.933 19.4019 147.115 19.6992 146.668 20.0607C146.222 20.4222 145.998 20.9442 145.998 21.6239C145.998 22.7935 146.668 23.3783 148.008 23.3783C148.54 23.3783 149.034 23.2876 149.492 23.1076C149.948 22.9275 150.342 22.6819 150.673 22.3734C151.002 22.065 151.267 21.7035 151.471 21.2889C151.673 20.8744 151.774 20.4334 151.774 19.9644L151.806 18.2421H151.805Z" fill="#252331"/>
<path d="M167.821 25.9311V16.4235C167.821 15.2106 167.618 14.3928 167.215 13.9671C166.81 13.5414 166.119 13.3292 165.141 13.3292C162.993 13.3292 161.918 14.5309 161.918 16.9343V25.9311H157.77V10.2335H161.727V12.5309C162.216 11.6376 162.865 10.9621 163.673 10.5043C164.481 10.0465 165.524 9.81763 166.799 9.81763C167.543 9.81763 168.235 9.92928 168.873 10.1526C169.511 10.3759 170.058 10.7109 170.516 11.1575C170.974 11.6041 171.334 12.1526 171.6 12.8003C171.866 13.4493 172 14.1988 172 15.0501V25.9297H167.819L167.821 25.9311Z" fill="#252331"/>
</svg>
