<svg width="172" height="31" viewBox="0 0 172 31" fill="none" xmlns="http://www.w3.org/2000/svg">
<path d="M31.0446 17.723C32.2564 17.723 33.2387 16.7501 33.2387 15.5499C33.2387 14.3497 32.2564 13.3768 31.0446 13.3768C29.8329 13.3768 28.8506 14.3497 28.8506 15.5499C28.8506 16.7501 29.8329 17.723 31.0446 17.723Z" fill="white"/>
<path d="M46.5189 0.131348H15.5719C7.00785 0.131348 0 7.06941 0 15.5497C0 24.03 7.00785 30.9681 15.5719 30.9681H46.5189C55.083 30.9681 62.0908 24.03 62.0908 15.5497C62.0908 7.06941 55.083 0.131348 46.5189 0.131348ZM31.0447 26.3762C25.0069 26.3762 20.1107 21.5289 20.1107 15.5511C20.1107 9.57331 25.0055 4.72602 31.0447 4.72602C37.0839 4.72602 41.9787 9.57331 41.9787 15.5511C41.9787 21.5289 37.0839 26.3762 31.0447 26.3762Z" fill="white"/>
<path d="M38.2037 16.8659L38.8052 16.9595L38.8848 16.4361L38.2846 16.3425L38.3265 16.062L39.665 16.27L39.6231 16.5505L39.1193 16.4724L39.0397 16.9957L39.5435 17.0739L39.5003 17.3572L38.1604 17.1493L38.2037 16.8659Z" fill="white"/>
<path d="M39.1944 18.376L39.1065 18.6523L38.2454 18.376C38.089 18.3257 37.9858 18.2406 37.9355 18.1234C37.8853 18.0061 37.8881 17.8624 37.9425 17.6921C37.9927 17.5358 38.0709 17.4227 38.1742 17.3557C38.2789 17.2887 38.4087 17.2804 38.565 17.3306L39.4415 17.6125L39.3535 17.8875L38.5022 17.6139C38.4226 17.5874 38.3514 17.5874 38.2928 17.6139C38.2328 17.6391 38.1923 17.6893 38.1686 17.7633C38.1128 17.9363 38.1686 18.0494 38.3361 18.1024L39.1972 18.3802L39.1944 18.376Z" fill="white"/>
<path d="M37.792 18.2882L39.0063 18.8912L38.5625 19.7844L38.3503 19.6784L38.6713 19.0322L38.4117 18.9037L38.1158 19.4983L37.9023 19.3922L38.1982 18.7977L37.8855 18.6427L37.5492 19.3183L37.3342 19.2108L37.7934 18.2882H37.792Z" fill="white"/>
<path d="M36.7225 20.0704L37.4762 20.6148L36.8719 19.8667L37.038 19.6378L37.9354 19.9755L37.1859 19.434L37.3408 19.2205L38.4393 20.0132L38.195 20.351L37.2445 19.9686L37.9061 20.7488L37.666 21.0795L36.5676 20.2868L36.7239 20.0718L36.7225 20.0704Z" fill="white"/>
<path d="M35.849 20.9707L36.1044 21.113L36.4673 20.7669L36.3431 20.4989L36.5608 20.291L37.1484 21.6015L36.9097 21.829L35.6243 21.1828L35.8476 20.9693L35.849 20.9707ZM36.8218 21.4955H36.8232L36.5761 20.986L36.3263 21.2247L36.8218 21.4955Z" fill="white"/>
<path d="M34.9097 21.6603L35.9048 22.0846L35.3926 21.3351L35.6117 21.1872L36.3752 22.3038L36.1254 22.4726L35.186 22.0567L35.6773 22.7755L35.4568 22.9249L34.6934 21.8083L34.9097 21.6617V21.6603Z" fill="white"/>
<path d="M33.8775 22.2087L34.3088 23.4885L33.8078 23.6532C33.7212 23.6825 33.6361 23.6937 33.5523 23.6895C33.4686 23.6853 33.3918 23.6644 33.3207 23.6281C33.2495 23.5918 33.1867 23.5388 33.1308 23.4718C33.075 23.4048 33.0303 23.3224 32.9982 23.2247C32.9661 23.127 32.948 23.0335 32.948 22.9442C32.948 22.8549 32.962 22.7739 32.9927 22.7C33.022 22.626 33.0666 22.5632 33.1253 22.5087C33.1839 22.4543 33.2551 22.4138 33.3374 22.3859L33.8789 22.2073L33.8775 22.2087ZM33.4644 22.5869C33.3458 22.626 33.2732 22.6902 33.2439 22.7809C33.2146 22.8716 33.2243 22.9889 33.2746 23.134C33.2983 23.2066 33.3262 23.2652 33.3569 23.3127C33.3876 23.3601 33.4225 23.395 33.463 23.4188C33.5035 23.4425 33.5482 23.4536 33.5984 23.4536C33.6486 23.4536 33.7059 23.4425 33.7715 23.4215L33.9724 23.3559L33.6905 22.5157L33.4672 22.5897L33.4644 22.5869Z" fill="white"/>
<path d="M32.7181 22.5617L33.0098 23.8793L32.7307 23.9393L32.439 22.6218L32.7181 22.5617Z" fill="white"/>
<path d="M31.3757 22.7584L31.3952 22.891C31.4218 22.831 31.4706 22.7822 31.539 22.7431C31.6074 22.704 31.6897 22.6803 31.7832 22.6705C31.8768 22.6607 31.9647 22.6733 32.0442 22.7054C32.1238 22.7375 32.195 22.7849 32.255 22.8464C32.315 22.9078 32.3653 22.9803 32.4029 23.0641C32.4406 23.1478 32.4643 23.2372 32.4741 23.3293C32.4853 23.427 32.4797 23.5219 32.4602 23.6112C32.4406 23.7005 32.4071 23.7815 32.3569 23.8513C32.3066 23.9211 32.2438 23.9797 32.1643 24.0243C32.0847 24.069 31.9898 24.0983 31.8795 24.1081C31.7986 24.1165 31.7232 24.1123 31.6507 24.0955C31.5781 24.0802 31.5139 24.0536 31.4566 24.0188C31.4008 23.9839 31.3534 23.9392 31.3143 23.8862C31.2766 23.8331 31.2515 23.7745 31.2389 23.7075L31.525 23.6782C31.532 23.7089 31.546 23.7368 31.5669 23.7633C31.5878 23.7899 31.6116 23.8108 31.6423 23.8289C31.673 23.8471 31.7051 23.8596 31.7428 23.868C31.7805 23.8764 31.8181 23.8792 31.8558 23.875C31.9703 23.8638 32.0582 23.8122 32.1182 23.7215C32.1782 23.6307 32.1992 23.5051 32.1824 23.3446C32.1768 23.2902 32.1643 23.2344 32.1433 23.1799C32.1238 23.1255 32.0959 23.0767 32.0596 23.0348C32.0233 22.9929 31.9814 22.9594 31.9298 22.9371C31.8795 22.9134 31.8209 22.905 31.7553 22.912C31.7093 22.9161 31.6674 22.9287 31.6283 22.9482C31.5906 22.9678 31.5571 22.9943 31.5306 23.025C31.5041 23.0557 31.4832 23.0906 31.4706 23.1297C31.458 23.1688 31.4525 23.2092 31.4566 23.2511L31.7567 23.2204L31.7805 23.4451L31.2138 23.5009L31.1384 22.7794L31.3729 22.7556L31.3757 22.7584Z" fill="white"/>
<path d="M31.073 22.7574L31.0576 24.1056L30.7715 24.1014L30.7868 22.7532L31.0716 22.7574H31.073Z" fill="white"/>
<path d="M30.35 22.7236L30.2258 23.829L30.6347 23.8764L30.6082 24.1109L29.5056 23.9825L29.5321 23.748L29.9425 23.7955L30.0667 22.6901L30.3514 22.7222L30.35 22.7236Z" fill="white"/>
<path d="M29.0543 22.4893L29.0767 22.7796L29.5666 22.8941L29.7229 22.6456L30.0174 22.714L29.24 23.9157L28.9176 23.8403L28.7515 22.4181L29.0543 22.4893ZM29.1506 23.5849H29.152L29.4423 23.1034L29.1046 23.0239L29.1506 23.5849Z" fill="white"/>
<path d="M28.7445 22.4014L28.2434 23.6519L27.9782 23.5458L28.3886 22.5242L27.7605 22.2716L27.8512 22.0441L28.7445 22.4028V22.4014Z" fill="white"/>
<path d="M26.3259 21.046L26.2254 21.3182L26.626 21.6239L26.873 21.462L27.1131 21.6448L25.9044 22.4166L25.6406 22.2156L26.0803 20.8562L26.3273 21.0447L26.3259 21.046ZM25.9574 22.0803H25.9588L26.425 21.7634L26.1487 21.5527L25.9574 22.0803Z" fill="white"/>
<path d="M25.4746 20.206L25.381 20.3023C25.4452 20.287 25.5136 20.2954 25.5876 20.3261C25.6602 20.3568 25.73 20.407 25.7956 20.4754C25.8612 20.5438 25.9044 20.6192 25.9282 20.7015C25.9519 20.7839 25.9575 20.8676 25.9463 20.9527C25.9351 21.0379 25.9072 21.1202 25.864 21.2012C25.8193 21.2821 25.7649 21.3547 25.6965 21.4189C25.6253 21.4873 25.5471 21.5403 25.4634 21.5794C25.3796 21.6185 25.2959 21.6394 25.2094 21.6436C25.1228 21.6478 25.0377 21.6325 24.954 21.5976C24.8688 21.5627 24.7893 21.5054 24.7125 21.4245C24.6567 21.3659 24.6134 21.3031 24.5813 21.2361C24.5492 21.1691 24.5297 21.1035 24.5227 21.0365C24.5157 20.9709 24.5227 20.9067 24.5408 20.8439C24.559 20.7825 24.5911 20.7266 24.6371 20.6764L24.8353 20.8844C24.8158 20.9095 24.8018 20.9374 24.7934 20.9695C24.7865 21.0016 24.7837 21.0337 24.7879 21.0672C24.7921 21.1007 24.8018 21.1356 24.8186 21.1691C24.8353 21.204 24.8563 21.2347 24.8828 21.2626C24.9623 21.3463 25.0558 21.384 25.1647 21.3756C25.2736 21.3673 25.3866 21.3087 25.5039 21.1984C25.5443 21.1607 25.5806 21.1174 25.6113 21.0686C25.642 21.0197 25.663 20.9681 25.6755 20.9151C25.6881 20.862 25.6867 20.8076 25.6755 20.7532C25.663 20.6987 25.6351 20.6485 25.589 20.601C25.5569 20.5675 25.5206 20.541 25.4815 20.5229C25.4425 20.5047 25.4006 20.495 25.3601 20.4922C25.3182 20.4894 25.2778 20.495 25.2401 20.5089C25.201 20.5215 25.1661 20.5424 25.1354 20.5717L25.3434 20.7908L25.1787 20.9458L24.7865 20.5326L25.314 20.0358L25.4759 20.2074L25.4746 20.206Z" fill="white"/>
<path d="M25.2902 19.9925L24.1694 20.7434L23.6069 19.9143L23.8023 19.7831L24.2099 20.3819L24.4499 20.2214L24.0745 19.6687L24.2713 19.5361L24.6467 20.0888L24.9356 19.8948L24.51 19.2681L24.7095 19.1341L25.2916 19.9897L25.2902 19.9925Z" fill="white"/>
<path d="M24.3398 18.3636L23.7675 19.2736L24.5896 18.8898L24.7027 19.1284L23.4786 19.7007L23.3488 19.4285L23.9043 18.5715L23.1171 18.9386L23.0027 18.6972L24.2267 18.1263L24.3398 18.3636Z" fill="white"/>
<path d="M23.4286 17.0531C23.5068 17.0461 23.5808 17.0503 23.6505 17.0656C23.7203 17.081 23.7831 17.1047 23.8404 17.141C23.8976 17.1773 23.9464 17.2234 23.9883 17.2792C24.0302 17.335 24.0623 17.402 24.0832 17.4788C24.1083 17.5639 24.1167 17.6476 24.1097 17.73C24.1027 17.8123 24.0776 17.8891 24.0358 17.9589C23.9939 18.0287 23.9353 18.0915 23.8599 18.1459C23.7845 18.2003 23.691 18.2436 23.578 18.2743C23.4677 18.305 23.3658 18.319 23.2695 18.3162C23.1732 18.3134 23.0867 18.2939 23.0113 18.2576C22.9359 18.2213 22.8703 18.171 22.8159 18.1054C22.7615 18.0398 22.721 17.9589 22.6945 17.8668C22.6708 17.7858 22.6624 17.7077 22.6666 17.6351C22.6721 17.5625 22.6889 17.4955 22.7168 17.4355C22.7461 17.3755 22.7852 17.3238 22.834 17.2792C22.8829 17.2345 22.9401 17.1996 23.0029 17.1745L23.0825 17.4481C23.0141 17.4871 22.9652 17.5388 22.9401 17.603C22.9136 17.6672 22.9108 17.7314 22.929 17.7984C22.9611 17.9128 23.0267 17.9854 23.1244 18.0161C23.2221 18.0468 23.3407 18.0426 23.4844 18.0022C23.6296 17.9617 23.7343 17.9031 23.7999 17.8277C23.8655 17.7523 23.8822 17.6602 23.8515 17.5541C23.8278 17.4732 23.7873 17.4132 23.7287 17.3769C23.6715 17.3392 23.5975 17.3238 23.511 17.328L23.4314 17.0545L23.4286 17.0531Z" fill="white"/>
<path d="M23.8458 16.612L23.3377 16.6762L22.5645 17.2484L22.5213 16.919L23.0307 16.5659L22.4501 16.3719L22.4082 16.0467L23.307 16.3929L23.8109 16.3301L23.8472 16.612H23.8458Z" fill="white"/>
<path d="M23.8921 14.2127L23.292 14.1178L23.211 14.6412L23.8112 14.7361L23.7679 15.0166L22.4294 14.8059L22.4727 14.5253L22.9766 14.6049L23.0575 14.0815L22.5537 14.002L22.5969 13.7186L23.9354 13.9294L23.8921 14.2127Z" fill="white"/>
<path d="M22.9062 12.6928L22.9955 12.4164L23.8552 12.697C24.0116 12.7486 24.1148 12.8324 24.1651 12.951C24.2153 13.0696 24.2125 13.2134 24.1567 13.3823C24.1065 13.5386 24.0283 13.6502 23.9236 13.7172C23.8189 13.7842 23.6891 13.7926 23.5328 13.7424L22.6577 13.4576L22.747 13.1841L23.597 13.4604C23.678 13.487 23.7478 13.487 23.8078 13.4618C23.8678 13.4367 23.9097 13.3879 23.9334 13.3139C23.9892 13.1408 23.9334 13.0278 23.7673 12.9733L22.9075 12.6928H22.9062Z" fill="white"/>
<path d="M24.3089 12.7862L23.0974 12.179L23.5454 11.2872L23.7576 11.3932L23.4338 12.0381L23.6934 12.1679L23.9921 11.5747L24.2056 11.6822L23.9069 12.2753L24.2196 12.4317L24.5573 11.7575L24.7723 11.865L24.3103 12.7862H24.3089Z" fill="white"/>
<path d="M25.3853 11.0081L24.6344 10.4624L25.236 11.2132L25.0699 11.4407L24.1738 11.1002L24.9219 11.6445L24.767 11.8567L23.6714 11.0597L23.9184 10.7233L24.8675 11.11L24.2087 10.327L24.4502 9.99619L25.5458 10.7931L25.3881 11.0081H25.3853Z" fill="white"/>
<path d="M26.2629 10.1108L26.0074 9.96839L25.6432 10.3131L25.766 10.5811L25.5469 10.7877L24.9648 9.47571L25.2035 9.2496L26.4862 9.9L26.2615 10.1122L26.2629 10.1108ZM25.2928 9.58318H25.2914L25.5371 10.094L25.7883 9.85674L25.2928 9.58457V9.58318Z" fill="white"/>
<path d="M27.2042 9.42521L26.2104 8.99673L26.7198 9.74901L26.5007 9.89556L25.7415 8.7762L25.9913 8.60872L26.9292 9.02743L26.4407 8.30725L26.6612 8.1593L27.4205 9.27866L27.2028 9.42521H27.2042Z" fill="white"/>
<path d="M28.2337 8.88248L27.8066 7.60122L28.3077 7.43792C28.3942 7.41001 28.4794 7.39745 28.5645 7.40303C28.6496 7.40861 28.725 7.42955 28.7962 7.46584C28.866 7.50213 28.9302 7.55516 28.986 7.62216C29.0418 7.69055 29.0851 7.77289 29.1186 7.87059C29.1507 7.96829 29.1675 8.06181 29.1675 8.15113C29.1675 8.24046 29.1521 8.32141 29.1228 8.39538C29.0935 8.46935 29.0474 8.53216 28.9902 8.58659C28.9316 8.64102 28.8604 8.6815 28.7781 8.70802L28.2365 8.88527L28.2337 8.88248ZM28.6483 8.50564C28.7669 8.46656 28.8409 8.40236 28.8688 8.31303C28.8981 8.22231 28.8883 8.10507 28.8395 7.95992C28.8157 7.88734 28.7878 7.82872 28.7585 7.78127C28.7278 7.73382 28.6929 7.69892 28.6524 7.6752C28.612 7.65147 28.5673 7.6403 28.5171 7.6403C28.4668 7.6403 28.4082 7.65147 28.344 7.6724L28.143 7.738L28.4235 8.57961L28.6469 8.50564H28.6483Z" fill="white"/>
<path d="M29.3935 8.53207L29.106 7.21313L29.3851 7.15451L29.6726 8.47345L29.3935 8.53207Z" fill="white"/>
<path d="M30.7419 8.34084L30.7224 8.20824C30.6959 8.26826 30.647 8.31711 30.5772 8.35619C30.5089 8.39527 30.4265 8.419 30.333 8.42737C30.2395 8.43574 30.1516 8.42458 30.072 8.39248C29.9924 8.36038 29.9227 8.31292 29.8612 8.25151C29.8012 8.1901 29.7524 8.11752 29.7147 8.03238C29.677 7.94864 29.6533 7.85932 29.6449 7.7672C29.6351 7.6695 29.6393 7.57459 29.6603 7.48527C29.6798 7.39594 29.7147 7.31639 29.7649 7.24521C29.8138 7.17542 29.878 7.1182 29.9575 7.07353C30.0371 7.02887 30.132 7.00096 30.2423 6.98979C30.3232 6.98142 30.3986 6.987 30.4712 7.00235C30.5437 7.0177 30.6079 7.04422 30.6652 7.07912C30.721 7.11401 30.7685 7.15867 30.8061 7.21171C30.8438 7.26475 30.8689 7.32476 30.8815 7.39175L30.5954 7.41967C30.5884 7.38896 30.5745 7.36105 30.5535 7.33453C30.5326 7.30801 30.5089 7.28708 30.4795 7.26893C30.4502 7.25079 30.4167 7.23823 30.3791 7.22985C30.3414 7.22148 30.3037 7.21869 30.266 7.22148C30.1516 7.23264 30.0636 7.28289 30.0036 7.37361C29.9436 7.46433 29.9213 7.58995 29.9366 7.75045C29.9422 7.80628 29.9548 7.86071 29.9743 7.91514C29.9938 7.96958 30.0218 8.01843 30.0566 8.0603C30.0915 8.10217 30.1348 8.13567 30.185 8.15939C30.2353 8.18312 30.2939 8.19149 30.3595 8.18591C30.4056 8.18172 30.4488 8.16916 30.4865 8.14962C30.5256 8.13008 30.5577 8.10357 30.5856 8.07286C30.6135 8.04215 30.6331 8.00726 30.6456 7.96818C30.6582 7.9291 30.6638 7.88863 30.6596 7.84676L30.3595 7.87607L30.3372 7.65136L30.9038 7.59692L30.9764 8.3185L30.7419 8.34084Z" fill="white"/>
<path d="M31.0405 8.34233L31.0601 6.99408L31.3462 6.99966L31.3266 8.34792L31.0419 8.34233H31.0405Z" fill="white"/>
<path d="M31.7622 8.37722L31.8892 7.27182L31.4802 7.22297L31.5067 6.98849L32.6094 7.11969L32.5828 7.35417L32.1725 7.30532L32.0455 8.41072L31.7622 8.37722Z" fill="white"/>
<path d="M33.0619 8.61883L33.041 8.32852L32.5511 8.21268L32.3934 8.46111L32.0989 8.39133L32.8805 7.19241L33.2029 7.26918L33.3634 8.6914L33.0605 8.62022L33.0619 8.61883ZM32.9712 7.5232H32.9698L32.6767 8.00332L33.0145 8.08287L32.9712 7.5218V7.5232Z" fill="white"/>
<path d="M33.3784 8.70937L33.8851 7.46161L34.1502 7.56908L33.7357 8.58934L34.3624 8.84475L34.2703 9.07225L33.3784 8.70937Z" fill="white"/>
<path d="M35.7859 10.0717L35.8878 9.79953L35.4886 9.49248L35.2416 9.65298L35.0029 9.46875L36.2144 8.70111L36.4768 8.90349L36.0316 10.2615L35.7859 10.0717ZM36.1572 9.03887L35.6896 9.3543L35.9646 9.56645L36.1572 9.03887Z" fill="white"/>
<path d="M36.6345 10.916L36.728 10.8197C36.6638 10.835 36.5954 10.8266 36.5229 10.7945C36.4503 10.7638 36.3805 10.7136 36.3163 10.6452C36.2507 10.5768 36.2074 10.5 36.1837 10.4177C36.1614 10.3354 36.1558 10.2516 36.167 10.1665C36.1781 10.0813 36.206 9.99899 36.2507 9.91804C36.2954 9.83709 36.3512 9.76591 36.4196 9.7017C36.4922 9.63471 36.5703 9.58167 36.6541 9.54259C36.7378 9.50351 36.8215 9.48258 36.9081 9.47979C36.9946 9.4756 37.0798 9.49235 37.1635 9.52724C37.2486 9.56213 37.3282 9.62075 37.405 9.7017C37.4608 9.76032 37.504 9.82313 37.5348 9.89012C37.5655 9.95712 37.585 10.0241 37.592 10.0897C37.599 10.1553 37.592 10.2195 37.5738 10.2809C37.5543 10.3423 37.5222 10.3982 37.4761 10.4484L37.2793 10.2391C37.2989 10.2153 37.3128 10.1874 37.3212 10.1553C37.3296 10.1232 37.331 10.0911 37.3282 10.0562C37.324 10.0227 37.3142 9.98782 37.2975 9.95293C37.2807 9.91804 37.2598 9.88733 37.2347 9.85942C37.1551 9.77568 37.0616 9.73799 36.9527 9.74497C36.8439 9.75195 36.7294 9.81057 36.6122 9.92083C36.5717 9.95851 36.5354 10.0018 36.5047 10.0506C36.474 10.0995 36.4517 10.1511 36.4405 10.2042C36.4294 10.2572 36.428 10.3116 36.4405 10.3661C36.4531 10.4205 36.481 10.4707 36.5257 10.5196C36.5578 10.5531 36.594 10.5796 36.6331 10.5977C36.6722 10.6159 36.7127 10.6271 36.7546 10.6285C36.7964 10.6312 36.8369 10.6257 36.876 10.6131C36.9151 10.6005 36.9499 10.5796 36.9807 10.5503L36.7727 10.3312L36.9374 10.1776L37.3282 10.5922L36.7978 11.0862L36.6359 10.9146L36.6345 10.916Z" fill="white"/>
<path d="M36.8174 11.1311L37.9409 10.383L38.5006 11.2134L38.3052 11.3446L37.9004 10.7431L37.6604 10.9022L38.033 11.4563L37.8349 11.5875L37.4622 11.0334L37.1733 11.226L37.5962 11.854L37.3966 11.9866L36.8188 11.1283L36.8174 11.1311Z" fill="white"/>
<path d="M37.7624 12.764L38.3389 11.8554L37.5154 12.2365L37.4023 11.9964L38.6278 11.4297L38.7562 11.7019L38.1979 12.5561L38.9865 12.1918L39.0995 12.4333L37.8727 12.9999L37.761 12.7626L37.7624 12.764Z" fill="white"/>
<path d="M38.6678 14.0758C38.5882 14.0813 38.5156 14.0772 38.4458 14.0632C38.376 14.0479 38.3132 14.0227 38.2574 13.9864C38.2002 13.9502 38.1513 13.9041 38.1095 13.8483C38.0676 13.791 38.0369 13.7254 38.0146 13.6487C37.9908 13.5635 37.9825 13.4798 37.9894 13.3975C37.9978 13.3151 38.0215 13.2397 38.0648 13.17C38.1067 13.1002 38.1667 13.0388 38.2421 12.9843C38.3174 12.9299 38.4109 12.888 38.524 12.8559C38.6343 12.8252 38.7361 12.8127 38.8338 12.8154C38.9301 12.8196 39.0167 12.8392 39.092 12.8741C39.1674 12.9104 39.233 12.9606 39.2874 13.0276C39.3419 13.0946 39.3824 13.1741 39.4089 13.2677C39.4326 13.3486 39.441 13.4268 39.4354 13.4993C39.4298 13.5719 39.4131 13.6389 39.3837 13.6989C39.3544 13.7589 39.3154 13.8106 39.2651 13.8538C39.2163 13.8985 39.159 13.932 39.0962 13.9571L39.0181 13.6836C39.0879 13.6445 39.1353 13.5929 39.1618 13.5286C39.1884 13.4644 39.1925 13.4002 39.173 13.3346C39.1409 13.2202 39.0753 13.1476 38.979 13.1169C38.8827 13.0862 38.7627 13.0904 38.6203 13.1295C38.4751 13.17 38.3691 13.2272 38.3049 13.3025C38.2393 13.3779 38.2225 13.4686 38.2518 13.5747C38.2756 13.6557 38.3146 13.7157 38.3733 13.752C38.4305 13.7896 38.5045 13.805 38.591 13.8008L38.6691 14.0744L38.6678 14.0758Z" fill="white"/>
<path d="M38.2494 14.5156L38.7575 14.4542L39.5335 13.8862L39.5754 14.2156L39.0645 14.5659L39.6438 14.7627L39.6856 15.0879L38.7882 14.7389L38.2843 14.8004L38.248 14.5184L38.2494 14.5156Z" fill="white"/>
<path d="M80.2109 26.0622V16.3314C80.2109 15.1408 80.0029 14.3271 79.5884 13.8903C79.1739 13.4548 78.4872 13.2357 77.5311 13.2357C77.0203 13.2357 76.5625 13.3362 76.1591 13.5386C75.7544 13.7409 75.4138 14.0173 75.1389 14.3676C74.8625 14.7179 74.6546 15.1227 74.5164 15.5805C74.3782 16.0383 74.3084 16.5323 74.3084 17.0641V26.0608H70.1604V4.62277H74.3084V12.408C74.4564 12.0675 74.6853 11.7437 74.9937 11.4352C75.3022 11.1268 75.6581 10.8658 76.0628 10.6536C76.4662 10.4415 76.9128 10.2712 77.4027 10.1428C77.8912 10.0158 78.4021 9.95158 78.9338 9.95158C80.55 9.95158 81.8634 10.394 82.8739 11.2761C83.8844 12.1596 84.3896 13.3878 84.3896 14.9608V26.0636H80.2095L80.2109 26.0622Z" fill="white"/>
<path d="M96.4176 26.0622V23.8612C95.3541 25.6058 93.7267 26.4768 91.5368 26.4768C90.7496 26.4768 90.0322 26.3386 89.3832 26.0622C88.7342 25.7859 88.176 25.3923 87.7084 24.8815C87.2408 24.3706 86.8738 23.7649 86.6072 23.0629C86.3406 22.3608 86.208 21.5736 86.208 20.7013V10.3647H90.3561V20.0635C90.3561 22.0203 91.2381 22.9987 93.0037 22.9987C94.0672 22.9987 94.8698 22.6637 95.4127 21.9937C95.9542 21.3238 96.2264 20.4682 96.2264 19.4256V10.3647H100.342V26.0622H96.4176Z" fill="white"/>
<path d="M105.958 19.2987C106.022 20.4907 106.367 21.437 106.995 22.1376C107.621 22.8396 108.446 23.19 109.468 23.19C110.149 23.19 110.749 23.0364 111.271 22.7266C111.792 22.4181 112.127 21.9883 112.276 21.4342H116.551C116.061 23.0504 115.211 24.2954 113.998 25.1677C112.785 26.04 111.34 26.4755 109.659 26.4755C104.427 26.4755 101.811 23.6254 101.811 17.9254C101.811 16.7125 101.981 15.6182 102.322 14.6385C102.662 13.6601 103.156 12.8199 103.805 12.1178C104.455 11.4158 105.246 10.8784 106.182 10.5072C107.118 10.1345 108.192 9.94888 109.405 9.94888C111.829 9.94888 113.665 10.7249 114.908 12.2783C116.153 13.8317 116.774 16.1709 116.774 19.2973H105.959L105.958 19.2987ZM112.498 16.6832C112.477 16.1095 112.375 15.6043 112.195 15.1674C112.014 14.732 111.775 14.3705 111.478 14.083C111.179 13.7955 110.84 13.5833 110.457 13.4451C110.075 13.307 109.68 13.2372 109.277 13.2372C108.448 13.2372 107.729 13.54 107.123 14.1458C106.517 14.7515 106.171 15.5973 106.086 16.6818H112.499L112.498 16.6832Z" fill="white"/>
<path d="M136.618 26.0622V16.5547C136.618 15.5972 136.395 14.8212 135.948 14.2252C135.502 13.6306 134.906 13.332 134.162 13.332C133.418 13.332 132.763 13.6516 132.264 14.2894C131.764 14.9273 131.514 15.7256 131.514 16.6817V26.0622H127.366V16.6189C127.366 15.981 127.323 15.4604 127.239 15.0557C127.154 14.6523 127.01 14.3327 126.808 14.0982C126.606 13.8637 126.346 13.699 126.026 13.6041C125.707 13.5078 125.324 13.4604 124.878 13.4604C123.197 13.4604 122.357 14.4806 122.357 16.5226V26.0622H118.209V10.3647H122.102V12.662C122.633 11.6194 123.271 10.9076 124.017 10.5238C124.76 10.1414 125.654 9.95016 126.696 9.95016C127.228 9.95016 127.701 9.99343 128.116 10.0772C128.53 10.1623 128.903 10.3061 129.232 10.5084C129.562 10.7108 129.876 10.9704 130.173 11.29C130.47 11.6097 130.768 11.9921 131.066 12.4387C131.492 11.5664 132.056 10.9341 132.758 10.5405C133.46 10.147 134.31 9.95016 135.311 9.95016C136.098 9.95016 136.821 10.0828 137.48 10.3493C138.138 10.6159 138.702 10.9872 139.171 11.4659C139.639 11.9446 140.006 12.5029 140.272 13.1408C140.538 13.7786 140.671 14.4597 140.671 15.1827V26.0622H136.62H136.618Z" fill="white"/>
<path d="M152.092 26.0623C151.965 25.659 151.88 25.19 151.837 24.6582C151.347 25.2109 150.699 25.6534 149.891 25.9828C149.083 26.3122 148.146 26.4768 147.083 26.4768C145.274 26.4768 143.951 26.0777 143.111 25.2807C142.27 24.4838 141.85 23.4468 141.85 22.1697C141.85 21.042 142.03 20.1431 142.393 19.4732C142.755 18.8033 143.254 18.2771 143.892 17.8932C144.53 17.5108 145.291 17.2289 146.173 17.0475C147.055 16.8674 148.018 16.7013 149.061 16.5534C150.102 16.4054 150.804 16.2086 151.167 15.963C151.528 15.7187 151.71 15.3196 151.71 14.7669C151.71 14.256 151.471 13.8569 150.992 13.5707C150.513 13.2832 149.87 13.1395 149.062 13.1395C148.105 13.1395 147.419 13.3516 147.005 13.7773C146.59 14.203 146.329 14.7669 146.223 15.4689H142.363C142.383 14.6608 142.516 13.9169 142.762 13.2358C143.006 12.5547 143.4 11.9699 143.942 11.4814C144.485 10.9929 145.192 10.6146 146.064 10.3481C146.936 10.0829 148 9.94888 149.255 9.94888C150.509 9.94888 151.535 10.0871 152.398 10.3634C153.259 10.6398 153.95 11.0389 154.472 11.5595C154.992 12.0815 155.371 12.7291 155.605 13.5051C155.84 14.2812 155.955 15.1591 155.955 16.1374V26.0595H152.095L152.092 26.0623ZM151.805 18.3734C151.592 18.5855 151.283 18.7558 150.879 18.8842C150.474 19.0112 149.89 19.1508 149.125 19.2987C147.933 19.5332 147.115 19.8305 146.668 20.192C146.222 20.5535 145.998 21.0755 145.998 21.7552C145.998 22.9248 146.668 23.5096 148.008 23.5096C148.54 23.5096 149.034 23.4189 149.492 23.2388C149.948 23.0588 150.342 22.8131 150.673 22.5047C151.002 22.1962 151.267 21.8347 151.471 21.4202C151.673 21.0057 151.774 20.5646 151.774 20.0957L151.806 18.3734H151.805Z" fill="white"/>
<path d="M167.821 26.0623V16.5548C167.821 15.3419 167.618 14.524 167.215 14.0983C166.81 13.6726 166.119 13.4605 165.141 13.4605C162.993 13.4605 161.918 14.6622 161.918 17.0656V26.0623H157.77V10.3648H161.727V12.6621C162.216 11.7689 162.865 11.0934 163.673 10.6356C164.481 10.1778 165.523 9.94888 166.799 9.94888C167.543 9.94888 168.235 10.0605 168.873 10.2839C169.511 10.5072 170.058 10.8421 170.516 11.2888C170.974 11.7354 171.334 12.2839 171.6 12.9315C171.866 13.5805 171.999 14.33 171.999 15.1814V26.0609H167.819L167.821 26.0623Z" fill="white"/>
</svg>
