<svg width="315" height="80" viewBox="0 0 315 80" fill="none" xmlns="http://www.w3.org/2000/svg">
<g clip-path="url(#clip0_0_187)">
<path d="M235.817 79.6342C232.557 79.5887 230.041 77.3162 229.681 74.1097C229.542 72.8813 229.42 71.6432 229.156 70.4387C229.081 70.0963 228.539 69.6102 228.207 69.6054C224.16 69.5551 220.113 69.5623 216.066 69.627C215.718 69.6317 215.214 70.0819 215.065 70.4435C214.461 71.9067 213.99 73.4249 213.426 74.9071C212.257 77.9795 209.317 79.8353 206.004 79.6318C203.112 79.4522 201.064 76.8875 201.909 74.1456C202.749 71.4205 203.906 68.7864 204.979 66.1356C210.078 53.5445 215.2 40.9631 220.286 28.3649C220.61 27.5627 221.002 27.2346 221.897 27.2585C225.281 27.3543 228.666 27.4094 232.05 27.395C233.14 27.3902 233.491 27.8141 233.664 28.8294C235.212 37.862 236.818 46.8826 238.397 55.9104C239.424 61.7749 240.373 67.6562 241.486 73.5039C242.168 77.0839 239.136 79.7707 235.817 79.6318V79.6342ZM218.16 61.6767C221.438 61.6767 224.422 61.6959 227.403 61.6336C227.588 61.6288 227.958 60.9631 227.91 60.659C227.207 56.2696 226.453 51.8874 225.69 47.5052C225.545 46.6743 225.317 45.8553 225.058 44.7346C222.696 50.5369 220.471 55.9966 218.16 61.6791V61.6767Z" fill="#EB0E17"/>
<path d="M184.065 59.0138C183.638 59.0138 183.208 59.0138 182.781 59.0138C180.011 59.0186 180.568 58.5876 180.28 61.3079C179.845 65.4243 179.507 69.5502 179.077 73.6666C178.775 76.5665 177.066 78.4224 174.343 79.2462C171.768 80.0268 169.425 79.5455 167.572 77.4119C166.641 76.3391 166.336 75.1106 166.468 73.7457C167.356 64.5838 168.266 55.4219 169.142 46.26C169.66 40.8313 170.061 35.3907 170.645 29.9692C171.005 26.6215 170.517 27.3159 173.595 27.2872C178.614 27.2393 183.635 27.2633 188.654 27.3231C191.35 27.3566 193.99 27.7446 196.484 28.8796C200.88 30.8792 203.47 34.1383 203.911 39.0114C204.382 44.2054 203.647 49.0856 200.083 53.1565C197.454 56.1618 193.99 57.7878 190.095 58.4678C188.11 58.8151 186.084 58.9324 184.075 59.1527C184.07 59.1048 184.065 59.0593 184.06 59.0114L184.065 59.0138ZM181.144 50.7786C182.344 50.702 183.338 50.6565 184.327 50.5727C186.931 50.3524 188.88 49.1431 190.001 46.7533C191.002 44.6196 191.211 42.3591 190.788 40.0746C190.287 37.3686 188.741 36.0803 186 35.8935C185.265 35.8433 184.519 35.8935 183.789 35.8097C182.822 35.6972 182.474 36.1378 182.404 37.031C182.253 38.9946 182.051 40.9534 181.871 42.9122C181.638 45.4434 181.403 47.9769 181.144 50.7763V50.7786Z" fill="#EB0E17"/>
<path d="M253.829 27.3254C254.372 27.2967 254.869 27.2488 255.366 27.2488C262.019 27.2655 268.676 27.2799 275.329 27.3158C277.103 27.3254 278.721 27.7708 279.895 29.2291C282.036 31.8872 280.699 36.0108 277.235 37.0955C275.963 37.4931 274.564 37.5841 273.217 37.6224C270.577 37.7014 267.934 37.6463 265.164 37.6463C264.849 41.0587 264.537 44.4255 264.208 47.9912C265.485 47.9912 266.602 47.9912 267.718 47.9912C269.002 47.9912 270.286 47.9864 271.57 48.0031C274.331 48.0391 276.246 49.5022 276.645 51.8633C277.019 54.0807 275.471 56.6119 273.143 57.4213C272.353 57.6967 271.477 57.8284 270.637 57.8475C268.616 57.8954 266.59 57.8667 264.566 57.8068C263.594 57.7781 263.148 57.9649 263.08 59.1095C262.915 61.9256 262.535 64.7273 262.262 67.5386C262.214 68.0247 262.255 68.5204 262.255 69.1239C264.749 69.1239 267.154 69.0856 269.554 69.1431C270.593 69.167 271.657 69.2867 272.66 69.5477C275.982 70.4146 277.329 74.1383 275.373 76.9568C274.216 78.6234 272.586 79.5933 270.555 79.61C263.628 79.6627 256.7 79.6292 249.773 79.6531C248.683 79.6579 248.839 78.9515 248.899 78.3097C249.29 74.1886 249.708 70.0698 250.099 65.9486C250.788 58.6713 251.458 51.3916 252.149 44.1142C252.663 38.7239 253.198 33.3336 253.724 27.9456C253.743 27.7612 253.784 27.5792 253.827 27.3302L253.829 27.3254Z" fill="#EB0E17"/>
<path d="M313.637 41.7849C312.768 40.9587 312.024 40.1948 311.217 39.498C309.671 38.1594 307.977 37.1105 305.884 36.8136C303.903 36.5334 302.187 37.0794 300.706 38.3653C299.4 39.498 299.03 40.7216 299.955 42.1584C300.903 43.6311 302.105 44.9793 303.37 46.203C305.293 48.0588 307.331 49.8045 309.388 51.5191C316.073 57.0914 315.701 68.2888 309.51 74.2466C302.89 80.6188 291.99 81.5024 284.489 76.16C284.189 75.9468 283.851 75.4871 283.877 75.1686C284.175 71.4281 284.535 67.6925 284.89 63.9593C284.902 63.8299 285.036 63.7102 285.207 63.442C285.591 63.794 285.917 64.0934 286.241 64.3951C289.071 67.0196 292.156 69.0646 296.26 68.8922C298.042 68.818 299.616 68.2888 300.876 66.9909C302.216 65.6092 302.54 64.1029 301.553 62.4458C300.85 61.2653 299.935 60.1685 298.939 59.2131C296.676 57.0363 294.239 55.032 291.995 52.8385C289.626 50.5229 287.881 47.7619 287.141 44.5076C285.204 35.9826 290.471 29.474 297.521 27.1297C303.149 25.2594 308.706 25.7216 314.076 28.3054C314.786 28.6479 315.07 29.0526 314.988 29.826C314.587 33.5976 314.218 37.3691 313.831 41.1431C313.812 41.3179 313.73 41.4879 313.637 41.7897V41.7849Z" fill="#EB0E17"/>
<path d="M0 79.6442C0.187229 76.9358 0.333651 74.3616 0.547283 71.7921C0.830526 68.4013 1.16898 65.0153 1.47863 61.6269C2.25154 53.1163 3.02926 44.6034 3.79018 36.0928C4.13823 32.2015 4.42387 28.3054 4.79113 24.4165C5.40802 17.8863 8.25006 12.3715 12.9956 7.93181C20.5759 0.841274 29.4549 -1.53661 39.4548 1.78955C42.4001 2.76896 45.0885 4.54818 47.8417 6.0592C55.434 10.2235 63.0024 14.4285 70.5683 18.6383C77.9663 22.7523 85.285 27.0147 92.7789 30.9443C95.0161 32.1177 95.3545 33.3581 95.1001 35.6402C94.2936 42.8673 93.7631 50.123 93.127 57.3668C92.5125 64.3424 91.8668 71.3156 91.3099 78.296C91.2187 79.443 90.789 79.7687 89.7281 79.6753C88.9167 79.6035 88.0934 79.6394 87.2773 79.6609C86.5572 79.6801 86.3316 79.3736 86.3964 78.6672C86.8716 73.6217 87.3277 68.5737 87.779 63.5258C88.2951 57.7476 88.8039 51.9693 89.3104 46.1886C89.5937 42.9511 89.8313 39.7111 90.1697 36.4783C90.2682 35.542 89.9273 35.0487 89.1616 34.6273C78.9912 29.019 68.8257 23.406 58.6673 17.7762C52.6208 14.4261 46.6055 11.0209 40.5494 7.68995C33.7491 3.94952 26.9753 4.25603 20.3695 8.14733C14.8007 11.428 11.1809 16.2604 9.95432 22.5942C9.29662 25.997 9.1838 29.5051 8.86455 32.9702C8.24286 39.747 7.64036 46.5239 7.04267 53.3031C6.62501 58.0421 6.23135 62.7811 5.82329 67.5201C5.50404 71.2198 5.20399 74.9195 4.82954 78.6121C4.79113 78.9785 4.31346 79.5651 3.99661 79.5939C2.73402 79.7064 1.45702 79.6418 0 79.6418L0 79.6442Z" fill="#EB0E17"/>
<path d="M121.605 69.1197C124.224 69.1197 126.713 68.9976 129.181 69.17C130.484 69.261 131.905 69.6154 133 70.2883C135.16 71.6173 135.659 74.3568 134.32 76.5192C133.223 78.2912 131.653 79.4598 129.469 79.4742C123.014 79.5125 116.557 79.5173 110.1 79.5173C108.144 79.5173 108.11 79.4885 108.305 77.489C109.183 68.4468 110.093 59.4094 110.969 50.3697C111.636 43.4827 112.284 36.5933 112.918 29.7015C113.139 27.2901 113.11 27.2901 115.546 27.2997C116.831 27.3045 118.115 27.2901 119.397 27.3093C122.918 27.3596 125.309 30.099 124.975 33.5713C124.063 43.1163 123.194 52.6637 122.299 62.2088C122.087 64.4669 121.845 66.7251 121.603 69.1221L121.605 69.1197Z" fill="#EB0E17"/>
<path d="M159.233 34.233C158.631 40.5573 157.946 47.7148 157.265 54.8724C156.751 60.2604 156.242 65.6459 155.733 71.0339C155.642 71.9965 155.582 72.9616 155.452 73.9194C155.078 76.6757 153.167 78.7446 150.438 79.3912C147.704 80.0401 145.078 79.1661 143.758 77.0325C143.352 76.3763 143.04 75.5119 143.081 74.7623C143.254 71.5224 143.549 68.2872 143.847 65.0545C144.257 60.5908 144.713 56.1296 145.143 51.6684C145.657 46.3212 146.168 40.9715 146.67 35.6219C146.883 33.3518 147.118 31.0817 147.238 28.8044C147.296 27.7196 147.558 27.1952 148.791 27.2814C150.378 27.3915 151.979 27.3077 153.573 27.3101C157.152 27.3149 159.502 29.8197 159.235 34.2354L159.233 34.233Z" fill="#EB0E17"/>
<path d="M31.1664 12.4236C32.4025 12.426 34.3516 13.1468 36.2143 14.1693C44.8965 18.9274 53.5738 23.6904 62.2631 28.4342C68.7369 31.9687 75.2275 35.4744 81.7085 38.9945C83.4319 39.9308 83.4583 39.9931 83.2855 41.8801C82.5918 49.5477 81.9101 57.2154 81.2164 64.8806C80.8131 69.3514 80.3667 73.8174 80.0042 78.2906C79.9154 79.3993 79.4593 79.7442 78.3888 79.6819C77.6374 79.6388 77.3302 79.4137 77.4046 78.6498C77.599 76.6096 77.7623 74.5646 77.9399 72.5243C78.4704 66.4348 78.9937 60.3452 79.5361 54.2556C79.8818 50.3643 80.2394 46.473 80.6379 42.5889C80.7219 41.7699 80.4651 41.3173 79.745 40.9246C68.0432 34.5716 56.351 28.2019 44.6636 21.8226C41.2911 19.9811 37.9402 18.0965 34.5797 16.2335C30.7439 14.107 27.0473 14.5309 23.6748 17.1291C20.2519 19.768 18.8237 23.2977 19.8246 27.5984C20.3887 30.0266 22.0498 31.631 24.1645 32.7996C27.765 34.7919 31.392 36.734 34.9949 38.7239C42.8801 43.0774 50.7533 47.45 58.6337 51.8083C59.6179 52.3543 60.6188 52.8715 61.6198 53.3887C62.2871 53.736 62.5079 54.2269 62.4383 55.0003C61.7566 62.3974 61.1109 69.7968 60.4556 77.1939C60.4148 77.6561 60.3236 78.1182 60.326 78.5804C60.3332 79.8878 59.3923 79.6508 58.5953 79.6675C57.5632 79.6891 57.76 78.942 57.808 78.3601C58.3985 71.4252 58.9914 64.4879 59.6179 57.5554C59.8075 55.4649 59.8627 55.4505 58.0817 54.4735C46.5767 48.1588 35.0718 41.8442 23.5572 35.551C20.3935 33.8221 17.8851 31.5472 17.177 27.8618C16.1233 22.3685 18.214 18.0965 22.5827 14.8134C24.8342 13.1204 27.4482 12.4643 31.1664 12.4236Z" fill="#EB0E17"/>
<path d="M64.361 78.0417C65.0379 70.5872 65.7172 63.1518 66.3893 55.7164C66.4997 54.4832 66.5525 53.2452 66.6797 52.0143C66.7542 51.2935 66.4709 50.8745 65.8444 50.5344C53.3217 43.7337 40.8062 36.9209 28.2955 30.101C27.5802 29.7106 26.8817 29.282 26.224 28.8031C23.9412 27.1412 23.3963 24.3778 24.8606 22.0358C26.3272 19.6914 29.4333 18.7168 31.7904 19.9812C37.4385 23.0056 43.0553 26.0851 48.6794 29.1551C57.6088 34.0282 66.5285 38.9204 75.4675 43.7768C76.2404 44.1958 76.4876 44.7059 76.4108 45.5464C75.4195 56.5282 74.4305 67.5101 73.5016 78.4991C73.3864 79.8568 72.551 79.6533 71.7109 79.6605C70.6836 79.6701 70.8924 78.9397 70.9452 78.3458C71.8405 68.171 72.7215 57.9961 73.6744 47.8261C73.8088 46.3893 73.396 45.6254 72.095 44.9238C59.8579 38.3313 47.6568 31.667 35.451 25.0147C34.0204 24.2341 32.6738 23.2738 31.1903 22.6225C30.3334 22.2441 29.2268 22.0693 28.3243 22.2489C27.3041 22.4501 26.7017 23.3864 26.6056 24.4999C26.5024 25.6852 27.2177 26.3629 28.1491 26.873C35.2302 30.7547 42.3208 34.622 49.3995 38.5061C55.8325 42.0358 62.2631 45.5703 68.6648 49.1575C69.0393 49.3659 69.361 50.0842 69.3249 50.5344C68.8593 56.3965 68.324 62.2538 67.8103 68.1135C67.5151 71.466 67.2246 74.8185 66.9366 78.1734C66.8166 79.5647 66.6509 79.6748 65.3331 79.6629C63.9961 79.6509 64.4162 78.7242 64.3658 78.0393L64.361 78.0417Z" fill="#EB0E17"/>
<path d="M91.4997 23.2141C95.3097 23.2141 98.3983 20.1328 98.3983 16.3319C98.3983 12.531 95.3097 9.44971 91.4997 9.44971C87.6896 9.44971 84.601 12.531 84.601 16.3319C84.601 20.1328 87.6896 23.2141 91.4997 23.2141Z" stroke="#EB0E17" stroke-miterlimit="10"/>
<path d="M90.5386 19.0201V17.0999H91.2568L92.4816 19.0201H93.8499L92.4513 16.926C93.2224 16.669 93.676 16.0869 93.676 15.3535C93.676 14.2271 92.8822 13.5921 91.5139 13.5921H89.3895V19.0201H90.5386ZM90.5386 14.5446H91.461C92.1565 14.5446 92.5269 14.8168 92.5269 15.3535C92.5269 15.8827 92.1565 16.1549 91.461 16.1549H90.5386V14.5446Z" fill="#EB0E17"/>
</g>
<defs>
<clipPath id="clip0_0_187">
<rect width="315" height="79.38" fill="white" transform="translate(0 0.310547)"/>
</clipPath>
</defs>
</svg>
