<svg width="408" height="47" viewBox="0 0 408 47" fill="none" xmlns="http://www.w3.org/2000/svg">
<path d="M171.557 45.3886C172.295 45.3331 173.031 45.2671 173.77 45.2254C174.841 45.1664 175.368 44.6698 175.365 43.4856C175.344 35.6198 175.348 27.7576 175.368 19.8918C175.371 18.6069 174.753 18.145 173.608 18.1381C172.93 18.1381 172.252 18.0686 171.573 18.0304C171.567 17.8464 171.56 17.6623 171.557 17.4783C171.986 17.4088 172.416 17.2769 172.849 17.2734C177.322 17.2595 181.799 17.1657 186.268 17.2907C191.675 17.4401 196.272 21.8366 197.279 28.1083C198.25 34.1509 196.984 39.61 192.172 43.7322C190.331 45.3088 188.145 46.0728 185.835 46.1422C181.365 46.2742 176.889 46.1909 172.416 46.1804C172.124 46.1804 171.835 46.0276 171.543 45.9478C171.547 45.7602 171.553 45.5727 171.557 45.3852V45.3886ZM178.605 31.6436H178.612C178.612 35.4636 178.656 39.2836 178.592 43.1001C178.568 44.5691 179.082 45.2602 180.516 45.2358C182.249 45.2046 183.988 45.3053 185.717 45.2081C188.37 45.0553 190.425 43.7981 191.618 41.2873C194.361 35.5122 194.294 29.5148 192.42 23.5729C191.168 19.6036 188.82 18.1971 184.757 18.1589C183.357 18.145 181.956 18.1902 180.56 18.1346C179.139 18.0791 178.558 18.6833 178.585 20.1905C178.649 24.007 178.605 27.827 178.605 31.647V31.6436Z" fill="#C1AA5E"/>
<path d="M17.0128 30.949C18.4903 31.6262 19.6589 32.0186 20.6798 32.6611C22.9565 34.1023 24.1419 36.2484 23.9001 39.0544C23.655 41.902 22.1506 43.9509 19.6254 44.9684C18.0404 45.6074 16.2942 46.0554 14.5984 46.1283C10.693 46.2985 6.77749 46.1978 2.86538 46.1839C2.49263 46.1839 2.11989 46.0276 1.74715 45.9443C1.75386 45.7706 1.76058 45.597 1.7673 45.4268C2.32473 45.3643 2.88888 45.2185 3.43624 45.2602C5.06489 45.3852 5.55852 44.6142 5.54509 42.9925C5.48801 35.4219 5.49136 27.8513 5.54845 20.2808C5.56188 18.6868 4.99437 18.0513 3.49333 18.1416C2.92918 18.1763 2.35495 18.0547 1.39791 17.9679C1.88818 17.5547 2.03594 17.3185 2.18369 17.322C7.03942 17.381 11.9052 17.2838 16.7442 17.6068C19.3466 17.7804 21.5059 19.3223 22.6241 21.913C23.9472 24.9759 22.1405 28.8341 18.8396 30.2441C18.3426 30.4559 17.8288 30.6365 17.0094 30.9525L17.0128 30.949ZM12.3317 31.4005V31.4178C11.5493 31.4178 10.7299 31.265 10.0046 31.4734C9.52437 31.6123 8.83933 32.2548 8.82926 32.6854C8.74195 36.3179 8.76881 39.9538 8.80239 43.5863C8.81247 44.6941 9.42363 45.2636 10.515 45.2358C12.0194 45.1977 13.5305 45.2463 15.0248 45.1074C17.8288 44.8434 19.3668 43.5168 19.8537 40.7074C20.7738 35.4045 19.4709 31.0324 12.8354 31.4005C12.6675 31.4109 12.4996 31.4005 12.3351 31.4005H12.3317ZM8.78224 24.5071H8.76546C8.76546 24.7363 8.76546 24.969 8.76546 25.1982C8.76546 30.6122 8.76545 30.508 14.0846 30.5149C19.1217 30.5219 20.4615 27.1012 19.763 22.7395C19.2996 19.8328 17.4896 18.3742 14.6487 18.2006C13.3122 18.1173 11.969 18.1867 10.6325 18.145C9.37326 18.1068 8.77217 18.7111 8.77889 20.003C8.7856 21.5032 8.77889 23.0034 8.77889 24.5071H8.78224Z" fill="#C1AA5E"/>
<path d="M74.0592 17.4679H82.7196C82.7398 17.579 82.7565 17.6901 82.7767 17.7978C82.6088 17.902 82.4375 18.1034 82.2696 18.0999C79.6235 18.0409 78.9049 19.812 78.9082 22.2463C78.9183 29.5946 78.9149 36.943 78.9149 44.2913C78.9149 45.0865 78.9149 45.8818 78.9149 46.677C78.7504 46.7847 78.5825 46.8923 78.418 47C77.9512 46.5833 77.3602 46.2499 77.0412 45.7324C72.585 38.523 68.1726 31.2893 63.74 24.0661C63.2094 23.2013 62.6284 22.3748 61.7587 21.0621C61.6345 22.0449 61.527 22.5033 61.5237 22.9583C61.5102 29.0321 61.4934 35.1094 61.5169 41.1832C61.527 43.8537 61.9333 44.2739 65.3485 45.5866C64.5627 46.361 57.9776 46.4895 56.3523 45.6456C56.8358 45.472 57.1515 45.3157 57.4873 45.2463C59.5021 44.8434 60.2677 44.0621 60.2778 42.0236C60.3181 34.6753 60.2879 27.327 60.3181 19.9786C60.3248 18.6416 59.7808 18.0721 58.5081 18.1311C57.8735 18.1589 57.2388 18.0791 56.5336 17.6276C56.8291 17.5061 57.1213 17.2977 57.4268 17.2699C61.4095 16.9319 64.4496 18.5282 66.5473 22.0588C69.8717 27.6152 73.2264 33.1507 76.5744 38.6897C76.7658 39.0058 77.0177 39.2801 77.5516 39.9781C77.6456 38.8773 77.743 38.2348 77.7464 37.5924C77.7564 32.7896 77.7497 27.9868 77.7464 23.184C77.7396 19.1382 77.6288 18.9785 74.0659 17.4609L74.0592 17.4679Z" fill="#C1AA5E"/>
<path d="M334.492 21.6733C334.492 22.222 334.492 22.7672 334.492 23.3159C334.492 29.1015 334.492 34.8836 334.499 40.6692C334.499 44.0239 334.818 44.4406 337.914 45.3053C338.092 45.3539 338.23 45.5623 338.727 45.9825H329.583C329.549 45.8505 329.519 45.7151 329.485 45.5831C329.831 45.4581 330.17 45.2914 330.526 45.2115C332.548 44.7635 333.25 43.9857 333.28 41.7423C333.34 37.4048 333.303 33.0674 333.31 28.7299C333.313 25.9552 333.256 23.1736 333.361 20.4023C333.421 18.7528 332.843 18.027 331.242 18.1277C330.684 18.1624 330.113 18.0409 329.549 17.9922C329.556 17.7457 329.566 17.4956 329.573 17.2491C330.674 17.2491 331.799 17.388 332.877 17.2213C335.681 16.7941 337.236 18.0061 338.639 20.5586C341.981 26.6324 345.708 32.477 349.288 38.4119C349.566 38.8773 349.899 39.3044 350.581 39.6482C350.614 39.1134 350.675 38.5786 350.678 38.0403C350.685 32.8347 350.681 27.6291 350.681 22.4234C350.681 19.357 350.231 18.7736 347.36 18.0617C347.226 18.027 347.118 17.8742 346.638 17.4852H356.098C355.688 17.8707 355.587 18.0443 355.456 18.0756C352.192 18.8396 351.887 19.2181 351.887 22.6908C351.883 30.0947 351.897 37.4986 351.87 44.9025C351.87 45.538 351.598 46.1735 351.454 46.8055C350.883 46.3541 350.131 46.0172 349.768 45.4268C345.13 37.9292 340.547 30.3968 335.946 22.8749C335.661 22.4096 335.345 21.9616 335.046 21.5032C334.862 21.5587 334.677 21.6178 334.492 21.6733Z" fill="#C1AA5E"/>
<path d="M50.8719 35.5712C50.8719 38.9328 50.9055 42.1416 50.8182 45.347C50.8115 45.6422 50.0559 46.1561 49.6429 46.1596C43.0981 46.2117 36.5566 46.1978 30.0118 46.1804C29.6894 46.1804 29.367 45.9894 29.0447 45.8852C29.0514 45.7394 29.0547 45.5901 29.0615 45.4442C29.5652 45.3748 30.0689 45.2671 30.5726 45.2463C32.7553 45.1594 32.9232 45.0066 32.9232 42.6973C32.9333 35.2934 32.8896 27.8895 32.9568 20.4857C32.9736 18.7667 32.4262 17.9922 30.7506 18.1381C30.2301 18.1832 29.7028 18.145 29.179 18.145C29.1521 17.954 29.1219 17.763 29.095 17.572C29.4443 17.4679 29.7902 17.2734 30.1394 17.2734C36.57 17.256 43.0041 17.2456 49.4347 17.3012C49.8948 17.3046 50.7309 17.8394 50.7443 18.1589C50.8518 20.7218 50.8048 23.2916 50.4488 25.9517C50.3279 25.4065 50.1903 24.8613 50.0862 24.3126C49.2265 19.8502 47.3191 18.1971 42.9369 18.152C41.2579 18.1346 39.5822 18.1589 37.9032 18.1416C36.7312 18.1311 36.1738 18.6451 36.1872 19.9161C36.2242 23.0972 36.2242 26.2782 36.1805 29.4592C36.1671 30.508 36.4995 30.956 37.5372 30.8448C38.145 30.7788 38.7662 30.8414 39.3807 30.8309C41.8254 30.7893 42.8227 29.8655 43.135 27.3756C43.2156 26.7296 43.3298 26.0837 43.8133 25.4795V37.3423C43.7025 37.3666 43.5883 37.3909 43.4775 37.4187C43.3701 36.804 43.2391 36.1894 43.1585 35.5712C42.8126 32.9632 41.8119 31.9804 39.3102 31.9874C35.9018 31.9978 36.2074 31.3588 36.2007 35.1962C36.1939 37.9153 36.2376 40.6345 36.1872 43.3502C36.1604 44.7045 36.7581 45.2497 37.9905 45.2428C39.9482 45.2324 41.9093 45.3157 43.8604 45.2046C46.3453 45.0622 48.2862 43.9058 49.1694 41.3915C49.8276 39.5197 50.2977 37.5785 50.8787 35.5712H50.8719Z" fill="#C1AA5E"/>
<path d="M258.765 25.5211V37.3458C258.637 37.3666 258.51 37.3909 258.382 37.4118C258.278 36.7936 258.154 36.1755 258.07 35.5539C257.724 32.9528 256.717 31.9769 254.211 31.9804C250.813 31.9908 251.122 31.3553 251.112 35.2031C251.105 37.8632 251.166 40.5268 251.092 43.1835C251.048 44.7045 251.683 45.2775 253.076 45.2497C254.809 45.215 256.545 45.2602 258.278 45.2324C261.126 45.1838 263.258 43.944 264.222 41.0651C264.816 39.294 265.233 37.4604 265.847 35.2344C265.998 35.988 266.139 36.3422 266.129 36.6929C266.059 39.294 265.931 41.8916 265.881 44.4927C265.857 45.6873 265.515 46.236 264.215 46.2256C257.895 46.1631 251.575 46.2013 245.256 46.1874C244.822 46.1874 244.389 46.0519 243.953 45.9825C243.959 45.8019 243.966 45.6213 243.973 45.4442C244.476 45.3782 244.98 45.2706 245.487 45.2497C247.667 45.1629 247.835 45.0066 247.838 42.6973C247.845 35.2934 247.801 27.8895 247.871 20.4891C247.888 18.7701 247.344 18.0027 245.665 18.1346C245.145 18.1763 244.618 18.0721 244.09 18.0339C244.067 17.8707 244.043 17.7075 244.023 17.5408C244.429 17.447 244.839 17.2699 245.245 17.2699C251.565 17.2525 257.885 17.2734 264.205 17.2491C265.226 17.2456 265.793 17.5443 265.78 18.6972C265.756 21.0899 265.773 23.4826 265.773 25.8719C265.632 25.8997 265.491 25.924 265.35 25.9517C265.233 25.3996 265.102 24.8474 264.994 24.2918C264.134 19.8397 262.224 18.1937 257.831 18.152C256.152 18.1346 254.477 18.1589 252.798 18.1416C251.612 18.1311 251.085 18.6729 251.099 19.9335C251.135 23.1145 251.139 26.2956 251.092 29.4766C251.075 30.5427 251.444 30.9525 252.465 30.8448C253.073 30.7823 253.694 30.8414 254.309 30.8309C256.743 30.7893 257.737 29.8586 258.05 27.3617C258.13 26.7192 258.244 26.0802 258.345 25.4413C258.483 25.469 258.624 25.4968 258.762 25.5246L258.765 25.5211Z" fill="#C1AA5E"/>
<path d="M316.852 25.6948V37.3215C316.721 37.3423 316.594 37.3666 316.463 37.3875C316.386 36.8804 316.285 36.3734 316.234 35.8629C315.892 32.5638 312.752 30.6781 309.811 32.0811C309.492 32.2339 309.236 32.9042 309.23 33.3383C309.186 36.752 309.213 40.1657 309.209 43.5794C309.209 44.7462 309.777 45.2497 310.878 45.2393C312.725 45.222 314.572 45.2671 316.416 45.2289C319.421 45.1629 321.554 43.7738 322.467 40.7178C322.967 39.044 323.377 37.3388 323.911 35.3351C324.133 35.8178 324.297 36.0053 324.287 36.1859C324.139 39.1308 324.012 42.0757 323.767 45.0101C323.73 45.4303 323.105 46.1353 322.749 46.1388C316.036 46.2013 309.32 46.1804 302.608 46.1631C302.426 46.1631 302.242 46.0068 302.043 45.4998C302.678 45.413 303.313 45.2358 303.944 45.2567C305.348 45.3018 305.992 44.7219 305.986 43.2182C305.959 35.5226 305.952 27.827 305.992 20.1314C305.999 18.5965 305.348 18.0582 303.954 18.1346C303.336 18.1693 302.712 18.0409 302.09 17.9888C302.084 17.829 302.074 17.6658 302.067 17.5061C302.45 17.4192 302.829 17.263 303.212 17.2595C309.589 17.2456 315.969 17.2317 322.346 17.3012C322.816 17.3046 323.656 17.8915 323.686 18.2631C323.877 20.6211 323.894 22.9965 323.951 25.3683C323.955 25.5628 323.817 25.7573 323.629 26.2643C323.179 24.7155 322.867 23.4618 322.45 22.2463C321.52 19.5411 319.663 18.1485 316.852 18.1659C314.838 18.1798 312.816 18.0652 310.815 18.2214C310.254 18.2666 309.307 19.048 309.29 19.5202C309.162 23.2048 309.22 26.8963 309.22 31.0011C311.124 30.7858 313.212 31.1296 314.492 30.2336C315.721 29.3759 316.11 27.2367 316.852 25.6948Z" fill="#C1AA5E"/>
<path d="M134.615 32.9076C134.524 35.4566 133.671 38.8738 131.633 41.9194C127.442 48.1842 120.118 48.4933 115.487 42.6035C110.615 36.4047 110.9 25.9031 116.102 20.0064C120.098 15.478 125.958 15.3252 130.175 19.6418C133 22.5311 134.628 26.9901 134.618 32.9076H134.615ZM115.551 31.8554C115.551 36.2345 116.424 38.6272 117.495 41.8534C118.688 45.4477 122.378 46.8264 125.793 45.4303C127.882 44.576 129.01 42.8084 129.668 40.7005C131.109 36.0852 130.971 31.3414 130.481 26.615C130.3 24.8648 129.813 23.0937 129.171 21.458C128.1 18.718 125.968 17.3463 123.107 17.4331C120.236 17.5199 118.103 19.0341 117.324 21.8505C116.444 25.0349 115.555 29.6676 115.555 31.8589L115.551 31.8554Z" fill="#C1AA5E"/>
<path d="M228.882 45.9755H217.176C217.155 45.8158 217.139 45.6526 217.119 45.4928C217.76 45.406 218.398 45.2879 219.043 45.2324C220.933 45.0796 221.387 44.3989 220.812 42.5063C219.8 39.1632 217.608 37.4905 214.234 37.4882C213.898 37.4882 213.562 37.4882 213.227 37.4882C209.546 37.4847 208.676 38.2834 208.21 42.0895C207.968 44.0551 208.74 45.0448 210.634 45.2254C211.141 45.274 211.642 45.3574 212.145 45.4268C212.132 45.597 212.118 45.7637 212.108 45.9339H201.813C202.014 45.5831 202.068 45.4095 202.122 45.4095C205.275 45.3782 206.265 43.1348 207.135 40.5025C209.539 33.2306 212.092 26.0073 214.59 18.7701C214.765 18.2596 214.996 17.77 215.403 16.7733C215.879 17.7596 216.192 18.2527 216.373 18.7979C218.882 26.3407 221.43 33.8661 223.825 41.4471C224.58 43.8398 225.517 45.604 228.311 45.281C228.506 45.2602 228.734 45.5206 228.946 45.6491C228.925 45.7602 228.905 45.8679 228.885 45.979L228.882 45.9755ZM210.124 36.2206H218.714C217.307 32.0047 215.96 27.9764 214.613 23.948H214.076C212.79 27.9451 211.504 31.9422 210.124 36.2206Z" fill="#C1AA5E"/>
<path d="M104.711 17.5443C104.849 20.7843 104.99 24.0209 105.128 27.261C104.973 27.3026 104.816 27.3478 104.661 27.3895C104.463 26.8547 104.261 26.3164 104.067 25.7816C102.834 22.3922 101.159 19.3744 97.7133 17.9089C95.5641 16.9956 93.5056 17.2282 91.7729 18.8778C89.9461 20.6176 89.8118 22.9444 90.5539 25.1322C90.9032 26.1671 92.0617 27.1498 93.0859 27.6534C96.0107 29.0876 99.0766 30.2093 102.045 31.5567C105.02 32.9042 106.844 35.8317 106.696 38.7592C106.505 42.5549 104.574 45.3504 101.367 46.3923C98.0323 47.4758 95.0873 46.4999 92.3639 44.4753C92.0449 44.2392 91.7527 43.9648 91.4337 43.7356C90.0872 42.7667 89.4558 43.0098 89.0764 44.6455C88.9555 45.1699 88.8715 45.7012 88.7674 46.2325C88.6264 46.2221 88.4854 46.2117 88.341 46.2013V33.9981C88.9152 35.6928 89.4088 37.2416 89.9629 38.7661C90.8595 41.2248 92.4579 43.1314 94.5063 44.6316C97.8409 47.0729 102.861 45.9165 104.308 42.4056C105.457 39.6204 104.597 36.9464 101.844 35.5573C99.3856 34.3176 96.7898 33.3765 94.2679 32.2687C91.6789 31.1331 89.4558 29.6363 88.5425 26.615C87.6022 23.5069 88.0152 20.6662 90.2987 18.475C92.6225 16.242 95.497 15.9642 98.4453 17.1588C99.2714 17.4922 100.05 17.9783 100.796 18.4854C102.477 19.6244 103.783 19.3084 104.715 17.5373L104.711 17.5443Z" fill="#C1AA5E"/>
<path d="M406.136 17.5095V27.7784C405.82 26.9345 405.619 26.4101 405.427 25.8823C404.202 22.4964 402.546 19.482 399.128 17.9506C397.032 17.0129 395.041 17.2282 393.288 18.6798C391.478 20.1801 391.011 22.3818 391.649 24.4967C392.015 25.7052 393.164 26.9762 394.285 27.5631C397.17 29.0703 400.266 30.1364 403.221 31.5151C407.63 33.5744 409.148 37.9848 407.103 42.4785C405.501 45.9998 401.112 47.7918 397.197 46.3402C395.75 45.8019 394.4 44.9059 393.107 44.01C391.27 42.7389 390.817 42.8674 390.34 45.09C390.259 45.472 390.179 45.854 390.098 46.236C389.957 46.2325 389.813 46.229 389.668 46.2256V33.8939C389.866 34.4565 390.034 34.8142 390.118 35.1892C390.961 38.9606 392.529 42.2667 395.699 44.5482C397.727 46.0103 399.937 46.2742 402.254 45.5171C404.427 44.8052 405.72 43.2599 405.988 40.8845C406.25 38.5647 405.434 36.7242 403.403 35.7101C401.092 34.5572 398.674 33.6369 396.32 32.5708C395.195 32.0638 394.057 31.5498 393.019 30.883C389.591 28.6778 388.439 23.7952 390.39 19.9891C391.975 16.8914 396.451 15.5961 400.001 17.2491C400.81 17.6276 401.566 18.1416 402.311 18.6486C404.548 20.1696 404.897 20.062 405.622 17.5512C405.793 17.5373 405.965 17.5234 406.133 17.513L406.136 17.5095Z" fill="#C1AA5E"/>
<path d="M360.655 17.4019C361.373 17.3394 361.86 17.2595 362.35 17.2595C368.674 17.2525 374.994 17.2907 381.317 17.2282C382.677 17.2143 383.197 17.6172 383.184 19.0723C383.16 21.4407 383.332 23.8091 383.402 26.1775C383.415 26.6706 383.348 27.1637 382.919 27.7228C382.828 27.3513 382.734 26.9832 382.646 26.6116C382.287 25.0454 382.123 23.3923 381.532 21.9268C380.319 18.9229 378.006 17.7526 374.893 18.152C373.65 18.3117 373.543 19.1278 373.546 20.121C373.553 23.823 373.553 27.5284 373.55 31.2303C373.55 35.1649 373.597 39.0995 373.519 43.0341C373.486 44.708 374.127 45.3678 375.699 45.2532C376.545 45.1907 377.401 45.2428 378.56 45.2428C377.515 46.3298 367.317 46.5312 365.473 45.5102C365.994 45.4234 366.511 45.274 367.032 45.2567C370.165 45.1733 370.205 45.1838 370.225 42.0513C370.272 34.9357 370.292 27.8201 370.296 20.7044C370.296 18.3083 370.111 18.1485 367.801 18.1589C364.933 18.1693 363.009 19.4751 362.078 22.3019C361.508 24.0383 361.209 25.8684 360.655 27.6534V17.3984V17.4019Z" fill="#C1AA5E"/>
<path d="M284.689 46.8402C284.165 45.406 283.621 43.9822 283.121 42.541C280.609 35.3108 278.05 28.0979 275.646 20.8295C274.991 18.8535 273.947 17.9749 271.979 18.1277C271.589 18.1589 271.19 17.9922 270.793 17.9158C270.804 17.77 270.814 17.6276 270.827 17.4817H282.715C282.735 17.6311 282.758 17.7769 282.778 17.9263C282.093 18.0061 281.412 18.093 280.727 18.1589C279.131 18.3152 278.611 18.9264 279.111 20.4023C281.277 26.7748 283.51 33.1264 285.727 39.4815C285.76 39.5753 285.881 39.6343 286.247 39.9712C286.734 38.471 287.197 37.1096 287.624 35.7344C288.971 31.3901 290.404 27.07 291.61 22.6874C292.547 19.2876 291.905 18.4923 288.568 18.1242C288.369 18.1034 288.185 17.9818 287.94 17.8881C288.997 17.0372 296.778 16.9782 297.977 17.7457C297.92 17.8394 297.863 18.0131 297.809 18.0131C294.713 17.9297 293.665 20.055 292.873 22.67C290.629 30.0496 288.292 37.3979 285.975 44.7531C285.75 45.472 285.431 46.1561 285.156 46.8576C285.001 46.8541 284.847 46.8472 284.692 46.8437L284.689 46.8402Z" fill="#C1AA5E"/>
<path d="M158.007 17.4748H167.087C166.597 17.8394 166.422 18.0652 166.214 18.1068C163.588 18.6104 162.926 19.3744 162.913 22.1456C162.89 27.1776 162.916 32.2131 162.893 37.2451C162.866 42.9577 159.427 46.7257 154.212 46.8055C147.708 46.9028 143.628 43.3675 143.507 37.3458C143.396 31.9665 143.457 26.5873 143.443 21.208C143.439 19.2656 142.482 18.2423 140.572 18.1381C140.263 18.1207 139.957 18.0339 139.571 17.9645C140.461 17.0893 148.85 16.9226 150.552 17.954C149.907 18.02 149.259 18.1555 148.618 18.1346C147.301 18.0895 146.674 18.6 146.684 20.055C146.727 26.1879 146.64 32.3207 146.741 38.4501C146.815 42.9473 149.35 45.7706 153.131 45.8887C158.091 46.0415 161.482 43.3397 161.664 38.6376C161.882 32.9771 161.801 27.3026 161.721 21.6351C161.687 19.2146 160.962 18.5618 158.642 18.1173C158.403 18.0721 158.182 17.9367 157.953 17.8429C157.97 17.7214 157.987 17.5998 158.004 17.4783L158.007 17.4748Z" fill="#C1AA5E"/>
<path d="M15.5957 4.01448C15.3405 2.54551 15.8039 2.1531 17.849 2.63233C18.1982 1.7572 18.5474 0.878602 18.9 0C19.0545 0.0451456 19.209 0.0902911 19.3634 0.135437V2.7643C21.845 3.2227 22.1473 3.61512 21.6301 5.53554C21.5361 5.53554 21.4152 5.57374 21.3447 5.52859C20.7805 5.1709 20.2533 4.72639 19.6489 4.49025C19.5145 4.43816 18.8362 5.16396 18.8933 5.41399C19.0579 6.1398 19.3097 6.99062 19.8168 7.44902C20.8208 8.3554 22.745 7.92131 23.5442 6.78225C23.7927 6.42803 23.9908 6.03561 24.2124 5.65709C24.3367 5.71959 24.4643 5.77863 24.5885 5.84114C24.0076 7.12605 23.3897 8.3936 22.8659 9.70282C22.7215 10.0605 22.9297 10.5571 22.839 10.953C22.7618 11.2899 22.4864 11.5781 22.2984 11.8906C21.9357 11.6267 21.4857 11.4288 21.2305 11.078C21.0156 10.7828 21.019 10.3175 20.9249 9.92508C20.5253 10.2272 20.1224 10.5259 19.941 10.6648H5.12198C5.10183 10.63 4.8802 10.2064 4.40336 9.30346C4.1683 10.1334 4.10449 10.5502 3.92987 10.9079C3.7754 11.2308 3.54706 11.6441 3.26498 11.7378C3.03664 11.8142 2.40868 11.4531 2.41876 11.3246C2.55644 9.43195 1.16621 8.05327 0.894205 6.31343C0.877414 6.20578 0.880773 6.09465 0.968082 5.79252C1.69678 7.42471 2.88552 8.12967 4.5041 7.81018C4.96751 7.71989 5.67606 7.46638 5.76337 7.13994C5.97492 6.34816 5.89097 5.47303 5.92455 4.63263C5.16228 4.80974 4.40336 4.99032 3.55377 5.18827C2.96947 3.69152 3.28513 3.20186 5.72307 2.81639C5.72307 2.40313 5.70628 1.9621 5.72643 1.52106C5.74658 1.07655 5.80366 0.632038 5.84732 0.187528C5.99507 0.135437 6.14282 0.0868184 6.29394 0.0347273C6.62638 0.85082 6.96219 1.67039 7.30135 2.50731C9.50422 2.31631 9.746 2.50731 9.53109 4.4069C8.97701 4.25063 8.41958 3.95545 7.88901 3.99365C7.5935 4.01448 7.05621 4.66041 7.1133 4.90697C7.26441 5.57027 7.53977 6.5218 8.01325 6.72322C9.26916 7.25107 9.68556 7.99076 9.42027 9.32429C9.37326 9.55349 9.79302 9.8834 9.99786 10.1647C10.2128 9.94244 10.6493 9.6542 10.609 9.50488C10.1725 7.93867 10.7736 6.79267 11.8078 5.72654C12.0798 5.44872 12.1101 4.91739 12.3216 4.29925C11.7575 4.33745 11.4015 4.35828 10.9348 4.38954C10.9112 3.89294 10.8877 3.39633 10.8676 2.90321C11.0422 2.87542 11.1967 2.80597 11.2336 2.84764C12.6541 4.46246 14.1685 6.01825 14.7092 8.23733C14.7696 8.48042 14.6387 8.77213 14.6723 9.02911C14.726 9.41458 14.8469 9.78964 14.9375 10.1682C15.1625 9.82784 15.5118 9.51182 15.589 9.14024C15.7972 8.14009 15.9886 7.32053 17.0699 6.77183C17.6139 6.49749 17.7348 5.32023 18.0471 4.55276C17.3453 4.39648 16.6434 4.24368 15.5957 4.01101V4.01448ZM17.8624 7.13994C17.2143 7.8588 16.8147 8.30678 16.4151 8.75476C17.0262 9.18886 17.5937 9.82089 18.2654 9.97369C18.6045 10.0501 19.1284 9.26178 19.5683 8.86589C19.078 8.37276 18.5911 7.87616 17.8624 7.13994ZM7.11666 10.5432C7.82185 9.78269 8.29197 9.27915 8.7621 8.77213C8.28526 8.3936 7.75133 7.65043 7.34165 7.71989C6.72377 7.82407 6.19655 8.49084 5.62904 8.91798C6.02865 9.35555 6.43162 9.79311 7.12001 10.5432H7.11666ZM12.5466 6.87949C11.6332 7.89353 11.3444 8.77213 12.6205 9.71671C13.7354 8.72351 13.732 7.84838 12.5466 6.87949Z" fill="#C1AA5E"/>
<path d="M4.09106 12.5192C9.71578 10.8349 15.3472 10.8315 21.3715 12.3872C18.0773 14.3042 8.0972 14.3806 4.09106 12.5192Z" fill="#C1AA5E"/>
<path d="M24.3602 3.6429C24.2662 3.09768 24.199 2.7261 24.0949 2.12879C24.5785 2.35451 25.1661 2.47606 25.1863 2.66012C25.3609 4.26452 24.1117 4.61874 23.0002 5.23341C22.6275 3.89988 22.9733 3.30604 24.3602 3.6429Z" fill="#C1AA5E"/>
<path d="M1.02516 2.30937C1.00501 2.67748 0.981505 3.04559 0.951282 3.56303C2.28443 3.17408 2.46912 3.92766 2.19712 5.62236C1.28373 4.58748 0.59533 3.86515 0.00431433 3.0699C-0.0527724 2.9935 0.471082 2.45175 0.722935 2.12879C0.823677 2.18782 0.92106 2.25033 1.0218 2.30937H1.02516Z" fill="#C1AA5E"/>
</svg>
